<?xml version="1.0" standalone="no"?>
<!DOCTYPE svg PUBLIC "-//W3C//DTD SVG 1.1//EN" "http://www.w3.org/Graphics/SVG/1.1/DTD/svg11.dtd" >
<svg xmlns="http://www.w3.org/2000/svg">
<metadata></metadata>
<defs>
<font id="halis_grbook" horiz-adv-x="1398" >
<font-face units-per-em="2048" ascent="1638" descent="-410" />
<missing-glyph horiz-adv-x="614" />
<glyph unicode="&#xfb01;" horiz-adv-x="1042" d="M20 891v133h130v100q0 161 98 244.5t250 83.5q123 0 245 -49l-41 -125q-93 35 -184 35q-40 0 -73 -9.5t-62 -31t-45 -61.5t-16 -95v-92h557v-1026h-170v893h-387v-889h-172v889h-130z" />
<glyph unicode="&#xfb02;" horiz-adv-x="1067" d="M20 891v133h130v100q0 85 26.5 149.5t73 101.5t103 55t122.5 18q80 0 160.5 -30.5t138.5 -92.5l35 109h94v-1434h-170v1208q-91 95 -221 95q-83 0 -136.5 -45t-53.5 -142v-92h245v-133h-245v-889h-172v889h-130z" />
<glyph unicode="&#xfb03;" horiz-adv-x="1574" d="M20 891v133h130v100q0 161 98 244.5t250 83.5q65 0 146.5 -21.5t137.5 -58.5q92 80 248 80q124 0 246 -49l-41 -125q-93 35 -184 35q-86 0 -141.5 -45.5t-55.5 -151.5v-92h557v-1026h-170v893h-387v-889h-172v889h-360v-889h-172v889h-130zM322 1024h360v100q0 81 20 131 q-36 26 -88.5 42t-95.5 16q-40 0 -73 -9.5t-62 -31t-45 -61.5t-16 -95v-92z" />
<glyph unicode="&#xfb04;" horiz-adv-x="1601" d="M20 891v133h130v100q0 161 98 244.5t250 83.5q65 0 146.5 -21.5t137.5 -58.5q87 76 228 76q80 0 160.5 -30.5t138.5 -92.5l34 109h95v-1434h-170v1208q-91 95 -221 95q-83 0 -137 -45t-54 -142v-92h246v-133h-246v-891h-172v891h-362v-891h-172v891h-130zM322 1024h362 v100q0 76 21 131q-36 25 -90 41.5t-97 16.5q-40 0 -73 -9.5t-62 -31t-45 -61.5t-16 -95v-92z" />
<glyph horiz-adv-x="2048" />
<glyph horiz-adv-x="2048" />
<glyph unicode="&#xd;" horiz-adv-x="2048" />
<glyph unicode=" "  horiz-adv-x="614" />
<glyph unicode="&#x09;" horiz-adv-x="614" />
<glyph unicode="&#xa0;" horiz-adv-x="614" />
<glyph unicode="!" horiz-adv-x="620" d="M205 98q0 44 30 74.5t74 30.5t75.5 -30.5t31.5 -74.5t-31.5 -75t-75.5 -31t-74 31t-30 75zM225 854v580h170v-580l-41 -428h-94z" />
<glyph unicode="&#x22;" horiz-adv-x="657" d="M82 1434h174l-41 -492h-92zM401 1434h174l-40 -492h-93z" />
<glyph unicode="#" horiz-adv-x="1169" d="M123 242v116h190v310h-190v116h190v240h117v-240h309v240h117v-240h191v-116h-191v-310h191v-116h-191v-242h-117v242h-309v-242h-117v242h-190zM430 358h309v310h-309v-310z" />
<glyph unicode="$" horiz-adv-x="1255" d="M123 102q22 48 65 140q197 -88 361 -101v545q-59 17 -102 32.5t-94.5 38.5t-87 51.5t-67.5 66t-49.5 87t-19.5 109.5q-7 183 109.5 281.5t310.5 103.5v180h117v-186q195 -20 381 -100q-10 -25 -26 -71.5t-28 -74.5q-191 65 -327 80v-461q89 -28 136.5 -45.5t121 -56 t111.5 -80.5t68 -111.5t30 -156.5q0 -158 -131 -272t-336 -121v-193h-117v193q-123 7 -220.5 36t-205.5 86zM307 1098q0 -47 17.5 -84.5t53 -65t74.5 -46.5t97 -40v428q-102 -5 -170 -52t-72 -138v-2zM666 141q116 11 194.5 72.5t85.5 155.5q3 49 -10.5 89t-37 68.5 t-62.5 52.5t-78 40t-92 32v-510z" />
<glyph unicode="%" horiz-adv-x="1501" d="M61 1133q0 40 8.5 80.5t30 82.5t54 73.5t85 52t117.5 20.5q81 0 142 -30t93 -78.5t47 -99t15 -101.5q0 -53 -15 -104t-47 -99t-92.5 -77.5t-142.5 -29.5q-81 0 -141 29.5t-92 77.5t-47 99t-15 104zM178 1133q0 -27 6.5 -56.5t23.5 -65.5t55 -59.5t93 -23.5q44 0 78 16.5 t52.5 39.5t30 53.5t15 53t3.5 42.5q0 21 -3.5 43.5t-15 52t-30 52t-52.5 38.5t-78 16q-55 0 -93 -22.5t-55 -58t-23.5 -65t-6.5 -56.5zM451 0l467 1436h122l-462 -1436h-127zM846 305q0 51 15 101.5t47 99t93 78.5t142 30t141.5 -30t93 -78.5t47.5 -99t15 -101.5 q0 -42 -9 -83t-30.5 -82.5t-54.5 -72.5t-85.5 -51t-117.5 -20q-66 0 -118.5 20t-85 51t-54.5 73t-30.5 82.5t-8.5 82.5zM963 305q0 -26 7 -56t24 -66t55.5 -59.5t93.5 -23.5q54 0 92 23.5t54.5 59.5t23 65.5t6.5 56.5q0 21 -3.5 43.5t-14.5 52.5t-29 52.5t-51.5 38.5 t-77.5 16t-78 -16t-53 -39t-30.5 -52.5t-15 -52t-3.5 -43.5z" />
<glyph unicode="&#x26;" horiz-adv-x="1425" d="M166 383q0 57 15.5 108.5t40 90.5t61.5 76t72.5 63t80.5 53q-32 41 -63 72q-61 66 -88 131.5t-27 150.5q0 60 22 116.5t63 103.5t109.5 75.5t153.5 28.5q81 0 146 -26.5t104 -72t59.5 -100.5t20.5 -116q0 -66 -20.5 -124.5t-60 -107.5t-78.5 -84.5t-93 -75.5 q45 -48 159 -168.5t171 -183.5q64 131 86 289l153 -27q-30 -226 -131 -383q112 -112 181 -186l-117 -106l-160 167q-173 -176 -428 -167q-94 2 -176 37t-137.5 91t-87 128t-31.5 147zM340 393q-3 -78 38 -139t104.5 -91t133.5 -30q180 0 306 133q-62 66 -186.5 195 t-186.5 194q-101 -67 -155 -127t-54 -135zM422 1110q2 -36 15.5 -70.5t42 -70.5t46 -55t54.5 -56q61 39 98.5 72.5t65.5 87t28 117.5q0 73 -45 125.5t-131 52.5q-54 0 -93 -25t-55.5 -60.5t-22.5 -66t-3 -49.5v-2z" />
<glyph unicode="'" horiz-adv-x="337" d="M82 1434h174l-41 -492h-92z" />
<glyph unicode="(" horiz-adv-x="546" d="M61 598q0 518 322 993l102 -67q-249 -460 -249 -924q0 -480 249 -940l-102 -66q-322 478 -322 1004z" />
<glyph unicode=")" horiz-adv-x="546" d="M61 -340q250 462 250 940q0 462 -250 924l103 67q321 -474 321 -993q0 -528 -321 -1004z" />
<glyph unicode="*" horiz-adv-x="935" d="M123 924l211 139l-211 139l49 92l231 -118l15 258h102l12 -260l232 120l49 -92l-215 -139l215 -139l-49 -88l-232 114l-14 -256h-102l-13 258l-231 -116z" />
<glyph unicode="+" horiz-adv-x="1132" d="M164 610v121h342v342h121v-342h342v-121h-342v-342h-121v342h-342z" />
<glyph unicode="," horiz-adv-x="581" d="M166 106q2 50 35 83.5t82 33.5q70 0 102.5 -38.5t32.5 -94.5q0 -93 -53 -219t-113 -209l-68 33q38 69 71 154t40 139q-51 -5 -90 25.5t-39 92.5z" />
<glyph unicode="-" horiz-adv-x="884" d="M164 526v136h557v-136h-557z" />
<glyph unicode="." horiz-adv-x="563" d="M164 109q0 49 33.5 82.5t83.5 33.5t84 -33.5t34 -82.5q0 -50 -34.5 -84.5t-83.5 -34.5t-83 34.5t-34 84.5z" />
<glyph unicode="/" horiz-adv-x="724" d="M61 0l467 1434h136l-467 -1434h-136z" />
<glyph unicode="0" horiz-adv-x="1308" d="M123 692q0 93 15.5 185t54 188t97 168.5t152.5 119t211 46.5q118 0 212.5 -46.5t153 -119t97.5 -168.5t54.5 -188t15.5 -185q0 -96 -15.5 -190t-54.5 -189.5t-97.5 -167.5t-153 -117.5t-212.5 -45.5q-117 0 -211 45.5t-152.5 117.5t-97 167.5t-54 189.5t-15.5 190z M289 692q0 -35 3 -76t13.5 -98.5t26.5 -110t44 -106t65 -92.5t91.5 -63.5t120.5 -24.5t121.5 24.5t92 63.5t65 92.5t44.5 106t26 110t13 98.5t3 76t-3 75.5t-13 97t-26 108.5t-44.5 104.5t-65 91t-92 62.5t-121.5 24t-120.5 -24t-91.5 -62.5t-65 -91t-44 -104.5t-26.5 -108 t-13.5 -97t-3 -76z" />
<glyph unicode="1" horiz-adv-x="763" d="M82 1055l467 334h31v-1389h-170v1112l-258 -158z" />
<glyph unicode="2" horiz-adv-x="1060" d="M61 18l582 703q117 143 131 252q5 37 5 76.5t-17.5 78t-45 69t-77.5 49t-115 18.5q-162 0 -340 -164l-92 96q195 201 430 201q125 0 220 -47.5t148.5 -145.5t45.5 -233q-4 -76 -53.5 -172.5t-120.5 -171.5l-404 -477h543v-150h-833z" />
<glyph unicode="3" horiz-adv-x="1042" d="M82 137q11 12 39.5 46t46.5 53q62 -55 146.5 -91t162.5 -36q118 0 201.5 69t83.5 193q0 86 -41.5 145.5t-104 85t-139.5 25.5h-153v129h153q77 0 139.5 26t104 85.5t41.5 144.5q0 124 -83.5 193t-201.5 69q-77 0 -162 -35t-147 -88q-19 20 -47 53t-37 43q38 34 69 56 t80 48t110.5 39t133.5 13q103 0 184 -27.5t128 -69t78 -96.5t42 -103t11 -95q0 -102 -47 -185t-134 -139q181 -113 181 -317q0 -47 -11 -95t-42 -102.5t-78 -95.5t-128 -68.5t-184 -27.5q-136 0 -228.5 42.5t-166.5 112.5z" />
<glyph unicode="4" horiz-adv-x="1110" d="M61 285v90l654 1009h137v-958h197v-141h-197v-285h-170v285h-621zM264 426h418v651z" />
<glyph unicode="5" horiz-adv-x="1114" d="M123 166l100 96q60 -65 139 -102t150 -37q98 0 171.5 46.5t108.5 117.5t35 153q0 124 -84.5 211.5t-232.5 87.5h-305v643h676v-139h-506v-362h135q111 0 198 -30.5t139 -77t85.5 -109t46 -120.5t12.5 -118q0 -48 -12.5 -102t-47 -116.5t-86 -112t-139 -82.5t-196.5 -33 q-230 0 -387 186z" />
<glyph unicode="6" horiz-adv-x="1193" d="M125 455q0 155 37 295t96 242.5t138.5 188.5t158 140.5t160.5 91.5l69 -106q-182 -105 -288 -226.5t-158 -267.5q115 82 258 82q94 0 170.5 -22t126.5 -61t86 -85.5t54.5 -101t27 -101.5t8.5 -94q0 -44 -12 -96.5t-45 -116.5t-83.5 -114.5t-137 -84t-195.5 -30.5 q-80 1 -147.5 20t-114.5 49.5t-84.5 71.5t-60.5 83t-38 88t-20.5 83.5t-5.5 71.5zM285 453q0 -60 20.5 -117t58 -103.5t98 -75t134.5 -28.5q145 0 227 93.5t82 221.5q0 127 -81.5 219.5t-227.5 92.5q-149 0 -227.5 -84t-83.5 -219z" />
<glyph unicode="7" horiz-adv-x="956" d="M61 1245v139h834v-20l-573 -1364h-172l512 1245h-601z" />
<glyph unicode="8" horiz-adv-x="1132" d="M123 371q0 86 43 173.5t133 143.5q-90 56 -133 144t-43 176q0 47 11 95.5t41.5 104t78 97.5t128 70t183.5 28t184 -28t128.5 -70t79 -97.5t42.5 -104t11 -95.5q0 -88 -43.5 -175t-132.5 -145q89 -59 132.5 -145t43.5 -172q0 -47 -11 -96t-42.5 -104t-79 -97t-128.5 -69.5 t-184 -27.5t-183.5 27.5t-128 69.5t-78 97t-41.5 103.5t-11 96.5zM281 371q0 -124 83 -193t201 -69q75 0 139 28.5t106 89.5t42 144q0 126 -83.5 190t-203.5 64q-57 0 -106.5 -15t-90 -44.5t-64 -79.5t-23.5 -115zM281 1008q0 -122 82.5 -188t201.5 -66q121 0 204 65t83 189 q0 125 -85 194.5t-202 69.5q-118 0 -201 -69.5t-83 -194.5z" />
<glyph unicode="9" horiz-adv-x="1193" d="M125 963q0 45 12 97.5t45 116t83.5 113.5t137 83.5t195.5 31.5q80 -2 147.5 -21.5t114.5 -49.5t84.5 -70t60.5 -82t38 -87.5t20.5 -83.5t5.5 -73q0 -155 -37 -295t-96 -242.5t-138.5 -188.5t-158 -140.5t-160.5 -91.5l-69 106q182 105 288 226.5t158 267.5 q-115 -82 -258 -82q-94 0 -170.5 22t-126.5 61t-86 85.5t-54.5 101t-27 101.5t-8.5 94zM289 948q0 -81 32.5 -150t104.5 -115t172 -46q149 0 227.5 84t83.5 219q0 60 -20.5 117t-58 103.5t-98 75t-134.5 28.5q-145 0 -227 -94t-82 -222z" />
<glyph unicode=":" horiz-adv-x="563" d="M164 109q0 49 33.5 82.5t83.5 33.5t84 -33.5t34 -82.5q0 -50 -34.5 -84.5t-83.5 -34.5t-83 34.5t-34 84.5zM164 913q0 49 34 83t83 34q50 0 84 -34t34 -83q0 -50 -34.5 -85t-83.5 -35t-83 35t-34 85z" />
<glyph unicode=";" horiz-adv-x="581" d="M164 913q0 49 34 83t83 34q50 0 84 -34t34 -83q0 -50 -34.5 -85t-83.5 -35t-83 35t-34 85zM166 106q2 50 35 83.5t82 33.5q70 0 102.5 -38.5t32.5 -94.5q0 -93 -53 -219t-113 -209l-68 33q38 69 71 154t40 139q-51 -5 -90 25.5t-39 92.5z" />
<glyph unicode="&#x3c;" horiz-adv-x="860" d="M61 596v35l672 403l66 -108l-486 -310l486 -313l-66 -110z" />
<glyph unicode="=" horiz-adv-x="1028" d="M164 406v116h700v-116h-700zM164 928v116h700v-116h-700z" />
<glyph unicode="&#x3e;" horiz-adv-x="860" d="M61 303l486 313l-486 310l66 108l672 -403v-35l-672 -403z" />
<glyph unicode="?" horiz-adv-x="1105" d="M164 1243q101 110 195.5 157.5t226.5 47.5q158 0 257 -88.5t99 -249.5q0 -97 -53.5 -187.5t-138.5 -185.5q-57 -65 -88 -114t-35 -93v-124h-154v126q0 50 22 100t47 82.5t70 82.5q35 40 48 55.5t40 53t38 63t21.5 63.5t10.5 76q0 26 -4.5 50.5t-19 53.5t-38 50.5 t-65.5 35t-98 11.5q-79 -4 -141.5 -41t-145.5 -117zM442 98q0 44 32 74.5t77 30.5q47 0 77.5 -30t30.5 -75t-30.5 -75.5t-77.5 -30.5q-45 0 -77 31t-32 75z" />
<glyph unicode="@" horiz-adv-x="2367" d="M125 356q-2 242 73 451t212.5 360t341.5 237.5t448 86.5q237 0 434.5 -75t330.5 -207.5t206.5 -314t73.5 -392.5q0 -96 -14.5 -188.5t-51 -186t-91 -163.5t-141 -113t-194.5 -41q-90 2 -156 47.5t-94 134.5q-150 -136 -336 -139q-109 -2 -197 32t-142.5 88.5t-91 126.5 t-51.5 142t-15 139q0 71 15 141t51.5 142t91.5 126t142.5 87.5t196.5 31.5q189 -3 334 -143l41 125h90v-780q0 -162 146 -162q88 0 157 72.5t106.5 196.5t37.5 276q0 180 -59.5 334.5t-169.5 268.5t-278 179t-374 65q-279 0 -486.5 -122t-316.5 -345t-106 -518 q2 -109 26.5 -212.5t79.5 -208.5t136 -195t203.5 -169.5t275.5 -133.5l-58 -139q-270 93 -456.5 254.5t-277 364t-93.5 439.5zM838 379q0 -37 6.5 -80t29 -101t57.5 -102.5t100 -76t149 -31.5q95 0 172 47.5t114 109.5v471q-27 51 -117 101.5t-178 50.5q-62 0 -112.5 -17 t-84.5 -43.5t-59.5 -63.5t-39.5 -72.5t-23 -74.5t-11.5 -66.5t-2.5 -51.5z" />
<glyph unicode="A" d="M61 0l621 1448h27l628 -1448h-194l-166 395h-563l-162 -395h-191zM473 539h445l-224 538z" />
<glyph unicode="B" horiz-adv-x="1343" d="M205 0v1434h526q108 0 195 -25.5t141 -66.5t89.5 -95t50 -106.5t14.5 -106.5q0 -90 -45 -176t-132 -139v-4q90 -50 133.5 -139.5t43.5 -178.5q0 -54 -14.5 -106t-50 -106t-89.5 -94t-141 -65.5t-195 -25.5h-526zM377 147h375q71 0 126.5 20t85 48.5t48.5 65.5t24.5 64.5 t5.5 51.5q0 31 -5.5 59t-23.5 61t-48 57t-82.5 40.5t-122.5 18.5h-383v-486zM377 782h383q70 2 123 21.5t82 46.5t47.5 63t24 64.5t5.5 56.5q0 23 -5.5 50.5t-24.5 65t-48.5 67t-85 50.5t-126.5 21h-375v-506z" />
<glyph unicode="C" horiz-adv-x="1470" d="M123 723q0 67 10 135t34.5 141.5t61.5 138.5t94 124.5t128 102.5t168.5 68t211.5 25q170 0 293.5 -55t223.5 -160l-109 -106q-76 71 -187 121.5t-221 50.5q-96 0 -175.5 -25t-133 -65.5t-95 -95t-64.5 -108.5t-38 -112.5t-19.5 -101t-4.5 -78.5q0 -37 4.5 -79 t19.5 -100.5t38 -112.5t64.5 -108.5t95 -94t133 -64.5t175.5 -25q216 0 414 166q17 -23 50 -62t51 -63q-211 -198 -515 -198q-114 0 -211.5 25t-168.5 68t-128 102.5t-94 125t-61.5 139.5t-34.5 143t-10 138z" />
<glyph unicode="D" horiz-adv-x="1525" d="M205 0v1434h489q114 0 211.5 -24t168.5 -65t128.5 -98.5t94 -120.5t61 -134.5t35 -138.5t10.5 -134q0 -98 -20.5 -193t-72 -192t-129.5 -169.5t-204 -118.5t-283 -46h-489zM379 147h315q96 0 176 24.5t134.5 63t96.5 91.5t66.5 106t40 110t20.5 99t5 78t-5 78t-20.5 98.5 t-40 109t-66.5 105.5t-96.5 91.5t-134.5 62.5t-176 24h-315v-1141z" />
<glyph unicode="E" horiz-adv-x="1255" d="M205 0v1434h928v-148h-754v-506h590v-147h-590v-486h754v-147h-928z" />
<glyph unicode="F" horiz-adv-x="1255" d="M205 0v1434h928v-148h-754v-506h590v-147h-590v-633h-174z" />
<glyph unicode="G" horiz-adv-x="1462" d="M123 719q0 67 10 135t34.5 141.5t61.5 138.5t94 124.5t128 102.5t168.5 68t211.5 25q171 0 280 -44t204 -142q-22 -25 -58 -61.5t-49 -49.5q-63 65 -163.5 106.5t-213.5 41.5q-96 0 -175.5 -25t-133.5 -65.5t-95.5 -95t-65 -108.5t-38 -112.5t-19.5 -101t-5 -78.5 q0 -37 5 -79t19.5 -100.5t38 -112.5t65 -108t95.5 -94t133.5 -65t175.5 -25q193 0 332 105v286h-309v148h485v-500q-195 -192 -508 -192q-114 0 -211.5 25t-168.5 67.5t-128 101.5t-94 124t-61.5 138.5t-34.5 142.5t-10 138z" />
<glyph unicode="H" horiz-adv-x="1562" d="M205 0v1434h174v-654h803v654h176v-1434h-176v633h-803v-633h-174z" />
<glyph unicode="I" horiz-adv-x="583" d="M205 0v1434h174v-1434h-174z" />
<glyph unicode="J" horiz-adv-x="1236" d="M41 352l147 54q20 -58 46.5 -102.5t65.5 -83.5t96 -59q53 -18 117 -18h13q64 1 116.5 19t86 44.5t58 64.5t37 72.5t20 76.5t9 68t1.5 55v891h178v-891q0 -52 -6.5 -103.5t-22.5 -107.5t-41.5 -104.5t-65.5 -93.5t-91 -76.5t-122.5 -50.5t-156.5 -19t-156 19.5t-121.5 52 t-92 80.5t-68 99t-47.5 113z" />
<glyph unicode="K" horiz-adv-x="1361" d="M205 0v1434h174v-670l651 670h193l4 -11l-658 -684l711 -729l-4 -10h-201l-696 723v-723h-174z" />
<glyph unicode="L" horiz-adv-x="1064" d="M205 0v1434h174v-1287h563v-147h-737z" />
<glyph unicode="M" horiz-adv-x="2072" d="M61 0l482 1448h22l471 -1079l471 1079h23l481 -1448h-188l-320 987l-454 -1014h-23l-457 1012l-319 -985h-189z" />
<glyph unicode="N" horiz-adv-x="1562" d="M205 0v1438l20 6l959 -1034v1024h174v-1436l-19 -6l-958 1032v-1024h-176z" />
<glyph unicode="O" horiz-adv-x="1662" d="M123 719q0 67 10 135t34.5 141.5t61.5 138.5t94 124.5t128 102.5t168.5 68t211.5 25t211.5 -25t168.5 -68t128.5 -102.5t94 -124.5t61 -138.5t35 -141.5t10.5 -135q0 -69 -10.5 -138t-35 -142.5t-61 -139t-94 -124t-128.5 -101t-168.5 -67.5t-211.5 -25t-211.5 25 t-168.5 67.5t-128 101.5t-94 124t-61.5 138.5t-34.5 142.5t-10 138zM301 719q0 -36 4.5 -78t19.5 -100t38 -111.5t64.5 -107.5t95 -93.5t133 -64.5t175.5 -25q95 0 174.5 25t133 64.5t95 93.5t64.5 107.5t38 111.5t19.5 100t4.5 78t-4.5 78t-19.5 99.5t-38 110t-64.5 106.5 t-95 93t-133 63.5t-174.5 24.5q-96 0 -175.5 -24.5t-133 -63.5t-95 -93t-64.5 -106.5t-38 -110t-19.5 -99.5t-4.5 -78z" />
<glyph unicode="P" horiz-adv-x="1347" d="M205 0v1434h528q109 0 196.5 -29t141 -74.5t89.5 -105.5t50.5 -117.5t14.5 -114.5q0 -128 -69.5 -232t-174.5 -158t-217 -54h-385v-549h-174zM379 698h375q69 2 123.5 24.5t86 54.5t52 73.5t28 76t7.5 66.5q0 34 -7 69.5t-28.5 77t-54 73.5t-88.5 53.5t-128 21.5h-366 v-590z" />
<glyph unicode="Q" horiz-adv-x="1662" d="M123 719q0 67 10 135t34.5 141.5t61.5 138.5t94 124.5t128 102.5t168.5 68t211.5 25t211.5 -25t168.5 -68t128.5 -102.5t94 -124.5t61 -138.5t35 -141.5t10.5 -135q0 -86 -17.5 -172.5t-55 -175t-104.5 -167.5t-157 -134l332 -396h-199l-288 332q-105 -24 -220 -24 q-114 0 -211.5 25t-168.5 67.5t-128 101.5t-94 124t-61.5 138.5t-34.5 142.5t-10 138zM301 719q0 -36 4.5 -78t19.5 -99.5t38 -111t64.5 -107.5t95 -93.5t133 -64t175.5 -24.5q95 0 174.5 24.5t133 64t95 93.5t64.5 107.5t38 111t19.5 99.5t4.5 78t-4.5 78t-19.5 99.5 t-38 110.5t-64.5 107t-95 93.5t-133 64t-174.5 24.5q-96 0 -175.5 -24.5t-133 -64t-95 -93.5t-64.5 -107t-38 -110.5t-19.5 -99.5t-4.5 -78z" />
<glyph unicode="R" horiz-adv-x="1343" d="M205 0v1434h524q109 0 196.5 -29t141 -74.5t89.5 -105.5t50.5 -117.5t14.5 -114.5q0 -152 -94.5 -264.5t-239.5 -165.5q100 -215 264 -563h-178l-260 549h-338v-549h-170zM375 698h375q69 2 123.5 24.5t86 54.5t52 73.5t28 76t7.5 66.5q0 34 -7 69.5t-28.5 77t-54 73.5 t-88.5 53.5t-128 21.5h-366v-590z" />
<glyph unicode="S" horiz-adv-x="1255" d="M123 102q22 48 65 140q233 -103 426 -103q133 0 229 64t103 166q1 11 1 22q1 51 -19 93q-24 50 -69 81t-105 55.5t-127.5 44.5t-136 41t-132 51t-113 69.5t-81 102t-35.5 142.5v20q0 172 116 266q123 99 322 99q84 0 212 -24t268 -82q-10 -25 -26 -71.5t-28 -74.5 q-255 86 -420 86q-72 0 -128.5 -17.5t-95.5 -62t-42 -110.5v-2q0 -57 28.5 -101t76 -72.5t109.5 -52t130.5 -44.5t137 -45t130.5 -58.5t109.5 -79.5t76 -114.5t28.5 -157.5q0 -167 -142 -281.5t-360 -114.5q-151 0 -266 30t-242 95z" />
<glyph unicode="T" horiz-adv-x="1220" d="M92 1286v148h1036v-148h-432v-1286h-176v1286h-428z" />
<glyph unicode="U" horiz-adv-x="1474" d="M184 541v893h172v-893q0 -38 10 -85.5t37 -106.5t67.5 -106t109.5 -79.5t155 -32.5q87 0 156 32.5t109.5 79.5t67.5 106t36.5 106.5t9.5 85.5v893h176v-893q0 -75 -17.5 -149.5t-59.5 -148.5t-104 -130.5t-158.5 -91.5t-215.5 -35q-118 0 -214 35t-157.5 91.5t-103 130.5 t-59 148.5t-17.5 149.5z" />
<glyph unicode="V" d="M61 1434h191l442 -1078l449 1078h194l-628 -1448h-27z" />
<glyph unicode="W" horiz-adv-x="2328" d="M61 1434h189l446 -1065l453 1083h29l450 -1083l449 1065h190l-631 -1448h-22l-451 1050l-452 -1050h-21z" />
<glyph unicode="X" horiz-adv-x="1220" d="M61 0l453 719l-453 715h203l346 -564l346 564h203l-452 -715l452 -719h-198l-351 567l-350 -567h-199z" />
<glyph unicode="Y" horiz-adv-x="1273" d="M61 1434h197l377 -621l377 621h200l-489 -783v-651h-176v649z" />
<glyph unicode="Z" horiz-adv-x="1292" d="M123 14l766 1274h-717v146h991l4 -15l-766 -1272h768v-147h-1040z" />
<glyph unicode="[" horiz-adv-x="481" d="M61 -412v2003h359v-116h-191v-1770h191v-117h-359z" />
<glyph unicode="\" horiz-adv-x="724" d="M61 1434h136l467 -1434h-136z" />
<glyph unicode="]" horiz-adv-x="481" d="M61 -295h191v1770h-191v116h359v-2003h-359v117z" />
<glyph unicode="^" horiz-adv-x="1263" d="M205 915l413 555h27l414 -555l-96 -75l-332 389l-330 -389z" />
<glyph unicode="_" horiz-adv-x="843" d="M10 -6h824v-80h-824v80z" />
<glyph unicode="`" horiz-adv-x="1044" d="M225 1411l78 117l318 -236l-60 -86z" />
<glyph unicode="a" horiz-adv-x="1089" d="M123 281q0 92 31.5 159t88 104t123.5 53.5t148 16.5q130 0 240 -26v41q0 91 -15 148.5t-47.5 84.5t-70.5 34q-24 4 -57 4q-19 0 -40 -1q-50 -5 -129.5 -24t-146.5 -46l-49 123q181 88 364 88q70 0 125.5 -13.5t93.5 -34.5t65 -55.5t42 -68t23.5 -80t11 -84.5t2.5 -88 v-616h-90l-39 133q-59 -77 -149 -114t-171 -37q-87 0 -153.5 23t-103.5 56t-60 76.5t-30 77.5t-7 66zM279 299q0 -86 58 -131t146 -45q91 0 163 44t108 105v177q-114 28 -236 28q-239 0 -239 -178z" />
<glyph unicode="b" horiz-adv-x="1251" d="M164 0v1438h170v-471q139 71 284 71q112 0 202.5 -34.5t146.5 -89t93.5 -126t52.5 -140.5t15 -138q0 -70 -15 -139t-52 -140t-92 -125t-143 -88t-197 -34q-211 0 -334 143q-7 -26 -43 -127h-88zM334 274q39 -53 116 -95t168 -42q84 0 149 30t99.5 72t56.5 97t28.5 96 t6.5 78q0 41 -8 86t-32.5 100.5t-62 98.5t-104 72.5t-151.5 29.5q-60 0 -139.5 -26.5t-126.5 -61.5v-535z" />
<glyph unicode="c" horiz-adv-x="1128" d="M123 520q0 68 15 137.5t52 142t93 127.5t146.5 90.5t203.5 35.5q223 0 373 -164l-113 -105q-56 53 -125 81t-137 28q-140 0 -239 -100.5t-99 -272.5q0 -74 22 -144t62.5 -126.5t106 -90.5t145.5 -34q79 0 149.5 30.5t120.5 84.5l92 -105q-74 -76 -160.5 -117t-201.5 -41 q-117 0 -208 34.5t-146 89t-90.5 128.5t-48.5 144.5t-13 146.5z" />
<glyph unicode="d" horiz-adv-x="1251" d="M123 510q0 69 15 138t52.5 140.5t93.5 126t146.5 89t202.5 34.5q146 0 285 -71v471h169v-1438h-88q-36 101 -43 127q-70 -82 -153 -112.5t-180 -30.5q-109 0 -197 34t-143 88t-92.5 124.5t-52.5 140t-15 139.5zM293 510q0 -37 6.5 -78t28.5 -96t56.5 -97t99.5 -72 t149 -30q92 0 169 42t116 95v535q-47 35 -127 61.5t-140 26.5q-85 0 -151.5 -29.5t-104 -72.5t-62 -98.5t-32.5 -100.5t-8 -86z" />
<glyph unicode="e" horiz-adv-x="1103" d="M92 516q0 69 15 138t52 140.5t93 126t146.5 89t203.5 34.5q195 0 302.5 -117t107.5 -315q0 -66 -11 -125h-739q2 -43 13 -88t37 -95t63 -88.5t96 -63.5t131 -25q178 0 313 119l84 -109q-87 -80 -180.5 -116.5t-216.5 -36.5q-113 0 -203.5 34.5t-146.5 89t-93 126.5 t-52 141.5t-15 140.5zM266 608h582q2 20 2 40q0 30 -5 58q-9 48 -35 91t-80 70.5t-130 31.5q-80 0 -141.5 -26t-99 -70.5t-59.5 -91.5t-34 -103z" />
<glyph unicode="f" horiz-adv-x="722" d="M20 891v133h130v100q0 161 98 244.5t250 83.5q123 0 245 -49l-41 -125q-93 35 -184 35q-40 0 -73 -9.5t-62 -31t-45 -61.5t-16 -95v-92h219v-133h-219v-889h-172v889h-130z" />
<glyph unicode="g" horiz-adv-x="1132" d="M123 -168q4 136 153 211q-65 25 -94.5 75t-29.5 99v13q0 61 34 106q37 51 105 70q-98 130 -98 266q0 49 11 97.5t38.5 98.5t69 87.5t108 61t149.5 23.5q123 0 219 -57l154 139l88 -86l-143 -153q59 -112 59 -211q0 -50 -11.5 -99t-39 -99t-69.5 -87.5t-108 -61.5 t-149 -24q-85 0 -155 25q-12 1 -23 1q-53 0 -77 -27q-29 -34 -29 -81q0 -59 58.5 -95t127.5 -36q1 0 50 -1t114 -1q95 -2 165.5 -18t111 -41t64.5 -61t31 -71q5 -27 5 -60v-19q-2 -29 -13 -61.5t-41.5 -73.5t-75.5 -72.5t-122.5 -53.5t-175.5 -22q-103 0 -185.5 19.5 t-133 50.5t-83.5 71.5t-46 79.5t-13 78zM272 -176q0 -12 6 -28t26 -38t50.5 -39.5t86.5 -31t128 -15.5q76 0 133 13.5t86 32t46.5 42t21.5 37.5t4 25q1 9 1 16q0 30 -15 51q-19 26 -87 43t-190 17q-92 0 -153 -9t-91.5 -27t-41.5 -38.5t-11 -50.5zM362 672q0 -22 4 -47.5 t17.5 -60t34.5 -61.5t60.5 -46t90.5 -19q50 0 89.5 19t60.5 46t35 61.5t18 60t4 47.5q0 21 -4 46.5t-18 60.5t-35 62t-60.5 46.5t-89.5 19.5q-51 0 -90.5 -19.5t-60.5 -46.5t-34.5 -62t-17.5 -60.5t-4 -46.5z" />
<glyph unicode="h" horiz-adv-x="1179" d="M164 0v1434h170v-512q138 116 311 116q103 0 180 -32t120 -80.5t69.5 -119.5t34.5 -135.5t8 -142.5v-528h-168v528q0 200 -66.5 285.5t-210.5 85.5q-86 0 -167 -43.5t-111 -99.5v-756h-170z" />
<glyph unicode="i" horiz-adv-x="538" d="M164 1321q0 44 30 75t74 31t75.5 -31t31.5 -75t-31 -74t-76 -30q-44 0 -74 30t-30 74zM182 -2v1026h170v-1026h-170z" />
<glyph unicode="j" horiz-adv-x="518" d="M-266 -338l71 113q86 -51 175 -51q85 0 133.5 59t48.5 188v1053h172v-1053q0 -134 -41 -221q-81 -174 -299 -174q-83 0 -151 26.5t-109 59.5zM143 1321q0 44 30.5 75t74.5 31t75 -31t31 -75t-31 -74t-75 -30t-74.5 30t-30.5 74z" />
<glyph unicode="k" horiz-adv-x="1058" d="M164 0v1436h172v-891l432 479h188l-444 -483l485 -541h-196l-465 510v-510h-172z" />
<glyph unicode="l" horiz-adv-x="538" d="M184 0v1438h170v-1438h-170z" />
<glyph unicode="m" horiz-adv-x="1818" d="M164 0v1024h88l41 -127q152 143 336 143q229 0 332 -151q154 151 342 151q78 0 139.5 -17t102.5 -43.5t70 -69.5t44.5 -83.5t24 -98t10.5 -99.5t2 -101v-528h-170v578q0 31 -0.5 51.5t-5.5 56t-13.5 60t-25.5 54t-41 48.5t-61.5 33.5t-84.5 17.5q-12 1 -24 1 q-81 0 -151 -42q-81 -48 -113 -110q14 -82 14 -220v-528h-168v567q0 8 -1 26q-5 124 -34 184q-52 108 -196 118h-14q-88 0 -161 -48q-79 -52 -112 -110v-737h-170z" />
<glyph unicode="n" horiz-adv-x="1179" d="M164 0v1024h88l41 -127q135 143 336 143q79 0 142.5 -16t107.5 -43t76.5 -67.5t51.5 -83t30.5 -96.5t15.5 -101.5t4 -104.5v-528h-172v526v41.5t-2.5 47t-6.5 53.5t-13 52t-21.5 52t-33.5 43.5t-47 37.5t-62.5 22.5t-80.5 9.5q-87 0 -169 -50.5t-115 -103.5v-731h-170z " />
<glyph unicode="o" horiz-adv-x="1265" d="M123 512q0 69 15 138t52.5 140.5t93.5 126t146.5 89t202.5 34.5q113 0 203.5 -34.5t146.5 -89t93 -126t52 -140.5t15 -138q0 -71 -15 -140.5t-52 -140.5t-93 -125t-146.5 -88t-203.5 -34q-112 0 -202.5 34t-146.5 88t-93.5 125t-52.5 140.5t-15 140.5zM293 512 q0 -30 5 -64t17 -80t37 -86.5t60.5 -76.5t92.5 -57t128 -21q62 0 113.5 16.5t86 42.5t61 61.5t41.5 71t24.5 74t12.5 66.5t3 53t-3 53t-12.5 66.5t-24.5 74t-41.5 71t-61 61.5t-86 42.5t-113.5 16.5q-71 0 -128 -21t-92.5 -57t-60.5 -76.5t-37 -86.5t-17 -80t-5 -64z" />
<glyph unicode="p" horiz-adv-x="1251" d="M164 -412v1438h88q36 -101 43 -127q122 143 334 143q109 0 197 -34t143 -88t92 -125t52 -140t15 -139q0 -69 -15 -138t-52.5 -140.5t-93.5 -126t-146.5 -89t-202.5 -34.5q-145 0 -284 71v-471h-170zM334 217q47 -35 126.5 -61.5t139.5 -26.5q85 0 151.5 29.5t104 72.5 t62 98.5t32.5 100.5t8 86q0 37 -6.5 78t-28.5 96t-56.5 97t-99.5 72t-149 30q-91 0 -168.5 -42.5t-115.5 -94.5v-535z" />
<glyph unicode="q" horiz-adv-x="1251" d="M123 516q0 70 15 139.5t52.5 140t92.5 124.5t143 88t197 34q97 0 180 -30.5t153 -112.5q7 26 43 127h88v-1438h-169v471q-139 -71 -285 -71q-112 0 -202.5 34.5t-146.5 89t-93.5 126t-52.5 140.5t-15 138zM293 516q0 -41 8 -86t32.5 -100.5t62 -98.5t104 -72.5 t151.5 -29.5q60 0 140 26.5t127 61.5v535q-38 52 -116 94.5t-169 42.5q-84 0 -149 -30t-99.5 -72t-56.5 -97t-28.5 -96t-6.5 -78z" />
<glyph unicode="r" horiz-adv-x="747" d="M164 0v1024h88l41 -127q152 143 336 143q43 0 78 -6l-27 -143q-8 1 -21 2.5t-24 2.5t-21 1q-98 0 -176 -46t-104 -120v-731h-170z" />
<glyph unicode="s" horiz-adv-x="989" d="M123 80q9 21 28.5 59t28.5 58q163 -80 307 -80q85 0 144 40.5t59 106.5q0 29 -7.5 52t-26.5 42t-35.5 32t-49.5 27t-53.5 21l-61.5 21q-8 3 -12 4q-135 45 -189 78q-122 76 -122 217q1 133 90 207.5t234 74.5q181 0 356 -84q-10 -20 -27 -61t-30 -64q-167 68 -260 68 q-195 0 -203 -133q0 -28 13 -52t30.5 -39.5t51.5 -31t60.5 -24.5t71.5 -23q40 -13 68.5 -23t67.5 -27t66 -34t56.5 -42.5t47 -54t29 -67t11.5 -82.5q0 -126 -103.5 -204t-262.5 -78q-114 0 -200.5 22.5t-176.5 73.5z" />
<glyph unicode="t" horiz-adv-x="616" d="M20 889v135h132l16 205h156v-205h219v-135h-219v-619q0 -35 4.5 -59.5t17 -47.5t40.5 -33q20 -8 47 -8q10 0 22 1q52 3 118 20l23 -114q-124 -37 -240 -37q-53 0 -92.5 21.5t-60 50.5t-33 67.5t-15.5 63.5t-3 47v647h-132z" />
<glyph unicode="u" horiz-adv-x="1179" d="M123 496v528h172v-526q0 -133 23 -200q55 -159 243 -159q87 0 168.5 50t116.5 104v731h170v-1024h-88l-41 127q-135 -143 -336 -143q-79 0 -142.5 16t-107.5 43t-76.5 67.5t-51.5 83t-30.5 96.5t-15.5 101.5t-4 104.5z" />
<glyph unicode="v" horiz-adv-x="1048" d="M61 1024h187l276 -686l277 686h186l-448 -1049h-27z" />
<glyph unicode="w" horiz-adv-x="1632" d="M61 1024h187l276 -686l277 711h30l277 -711l276 686h187l-451 -1049h-26l-279 676l-276 -676h-27z" />
<glyph unicode="x" horiz-adv-x="968" d="M61 0l332 510l-332 514h201l221 -375l222 375h200l-334 -514l336 -510h-207l-217 367l-217 -367h-205z" />
<glyph unicode="y" horiz-adv-x="1157" d="M61 1024h185l334 -805l323 805h193l-615 -1448h-180l188 444z" />
<glyph unicode="z" horiz-adv-x="976" d="M92 10l516 860h-467v154h740l4 -10l-525 -860h512v-154h-776z" />
<glyph unicode="{" horiz-adv-x="593" d="M61 545v94q53 9 93.5 52t40.5 120v434q0 68 16.5 123.5t42 90.5t59 61.5t63.5 39t61 20.5t45.5 9.5t21.5 1.5h28v-116h-18q-13 0 -26.5 -2.5t-37 -17t-41 -38.5t-31 -74t-13.5 -118v-441q0 -64 -42 -114t-110 -76q69 -23 110.5 -76.5t41.5 -120.5v-438q0 -68 13.5 -118 t31 -74t41 -38.5t37 -17t26.5 -2.5h18v-117h-28q-7 0 -21.5 1.5t-45.5 9.5t-61 21t-63.5 39.5t-59 61.5t-42 90.5t-16.5 123.5v434q0 78 -40.5 120.5t-93.5 51.5z" />
<glyph unicode="|" horiz-adv-x="362" d="M123 -406v1995h117v-1995h-117z" />
<glyph unicode="}" horiz-adv-x="593" d="M61 -291h19q13 0 26.5 2.5t37 17t41 38.5t31 74t13.5 118v438q0 67 41.5 120.5t110.5 76.5q-68 26 -110 76t-42 114v441q0 68 -13.5 118t-31 74t-41 38.5t-37 17t-26.5 2.5h-19v116h29q7 0 21.5 -1.5t45.5 -9.5t61 -20.5t63.5 -39t59 -61.5t42 -90.5t16.5 -123.5v-434 q0 -77 40 -120t93 -52v-94q-53 -9 -93 -51.5t-40 -120.5v-434q0 -68 -16.5 -123.5t-42 -90.5t-59 -61.5t-63.5 -39.5t-61 -21t-45.5 -9.5t-21.5 -1.5h-29v117z" />
<glyph unicode="~" horiz-adv-x="1243" d="M123 553q122 201 321 201q46 0 96 -21t87 -45.5t87.5 -45.5t96.5 -21q111 0 215 131l94 -84q-120 -205 -311 -205q-52 0 -106 21.5t-92.5 47t-87 47t-89.5 21.5q-115 0 -211 -117z" />
<glyph unicode="&#xa1;" horiz-adv-x="620" d="M205 934q0 44 30 75t74 31t75.5 -31t31.5 -75t-31.5 -74.5t-75.5 -30.5t-74 30.5t-30 74.5zM225 178l35 428h94l41 -428v-579h-170v579z" />
<glyph unicode="&#xa2;" horiz-adv-x="1128" d="M123 520q0 64 13 128.5t45.5 132.5t81.5 121.5t127 92t175 47.5v179h117v-177q198 -20 324 -155l-113 -105q-106 93 -211 113v-776q125 20 217 119l92 -105q-129 -133 -309 -151v-199h-117v201q-101 8 -180.5 45.5t-127.5 90.5t-79.5 123.5t-43 137t-11.5 137.5zM293 520 q0 -149 71.5 -261t200.5 -136v772q-119 -23 -195.5 -120t-76.5 -255z" />
<glyph unicode="&#xa3;" horiz-adv-x="1214" d="M92 63q62 100 162 158v477h-123v131h123v291q0 161 98 244.5t248 83.5q118 0 244 -49q-8 -24 -21.5 -63t-21.5 -62q-117 37 -193 37q-176 0 -184 -178v-304h350v-131h-350v-434q65 -9 127.5 -42.5t118 -61t112.5 -27.5q113 0 215 129l95 -82q-120 -205 -312 -205 q-50 0 -104 21.5t-92.5 46.5t-87.5 46.5t-90 21.5q-54 0 -105 -23.5t-108 -91.5z" />
<glyph unicode="&#xa4;" horiz-adv-x="1318" d="M123 109l201 198q-68 122 -68 248q0 146 76 268l-209 209l76 76l209 -209q107 74 251 74t254 -76q31 31 102.5 103.5t106.5 107.5l74 -76l-211 -211q76 -122 76 -266q0 -122 -66 -246l201 -200l-74 -74l-192 190q-115 -88 -271 -88q-157 0 -270 86q-28 -28 -94 -93 t-96 -95zM432 555q0 -25 4 -53t19 -66.5t38 -68.5t66.5 -51t99.5 -21t99 21t66 51t37.5 68.5t19 67t4.5 52.5t-4.5 52t-19 66.5t-37.5 68.5t-66 51.5t-99 21.5t-99.5 -21.5t-66.5 -51.5t-38 -68.5t-19 -66.5t-4 -52z" />
<glyph unicode="&#xa5;" horiz-adv-x="1273" d="M61 1434h197l377 -621l377 621h200l-489 -783v-2h264v-117h-264v-237h264v-117h-264v-178h-176v178h-260v117h260v237h-260v117h260z" />
<glyph unicode="&#xa6;" horiz-adv-x="360" d="M123 373h115v-781h-115v781zM123 805v780h115v-780h-115z" />
<glyph unicode="&#xa7;" horiz-adv-x="1161" d="M164 -285l88 115q68 -50 148.5 -86.5t154.5 -40.5q56 0 107 20.5t87.5 66.5t36.5 108q0 81 -67 142.5t-215 133.5q-146 61 -233 158.5t-87 228.5q0 47 16 91.5t42.5 78.5t51 57.5t50.5 42.5q-143 143 -143 285q0 58 24.5 116.5t71 108.5t124 81.5t173.5 31.5 q179 0 354 -129q-14 -21 -28 -40t-30.5 -41.5l-27.5 -37.5q-144 83 -258 92q-112 0 -168 -50.5t-61 -119.5q0 -141 231 -254q71 -34 120 -61t104.5 -66.5t88.5 -78t55.5 -90t22.5 -109.5q0 -138 -172 -281q28 -32 46 -54.5t47 -65.5t44 -90.5t15 -94.5q0 -99 -57.5 -177 t-149 -118.5t-197.5 -40.5q-114 0 -225 52.5t-184 115.5zM348 582q0 -30 10.5 -58.5t24.5 -50.5t43 -48t49 -41t62 -39.5t62.5 -35.5t67.5 -35q18 -9 27 -14q111 90 117 195q0 27 -12.5 53.5t-29.5 48t-47.5 45.5t-54 39.5t-61.5 35.5t-57.5 29t-54.5 25t-41 19 q-4 -4 -23.5 -22t-29.5 -29t-24.5 -30.5t-21 -41t-6.5 -45.5z" />
<glyph unicode="&#xa8;" horiz-adv-x="1171" d="M225 1317q0 44 30.5 75t74.5 31t75 -31t31 -75t-31 -74.5t-75 -30.5t-74.5 30.5t-30.5 74.5zM735 1317q0 44 30.5 75t74.5 31t75 -31t31 -75t-31 -74.5t-75 -30.5t-74.5 30.5t-30.5 74.5z" />
<glyph unicode="&#xa9;" horiz-adv-x="1200" d="M82 924q0 131 67.5 249t188 191.5t262.5 73.5q106 0 202 -41t165 -111t110 -166t41 -202q0 -140 -69 -259.5t-188.5 -189.5t-260.5 -70q-132 0 -250.5 67.5t-193 189.5t-74.5 268zM162 918q0 -183 127 -310t311 -127t311 127t127 310q0 184 -127 312t-311 128t-311 -128 t-127 -312zM319 915q0 42 15 88t46 90t88 72.5t130 28.5q115 0 205 -86l-58 -55q-74 55 -147 55q-70 0 -122 -54.5t-52 -138.5q0 -87 51.5 -138.5t122.5 -51.5t147 55l58 -55q-90 -86 -205 -86q-73 0 -130 28t-88 71.5t-46 89t-15 87.5z" />
<glyph unicode="&#xaa;" horiz-adv-x="806" d="M82 885q0 63 22.5 110t61.5 73.5t86 39t102 12.5q77 0 201 -39v66q0 69 -11 111t-36.5 61.5t-52 25t-72.5 5.5q-32 0 -93 -15t-114 -37l-37 91q115 59 236 65q60 3 107.5 -5t79.5 -23t55 -41t36 -51.5t20 -62t9 -66t2 -68.5v-461h-68l-28 98q-58 -55 -122 -83.5 t-118 -28.5q-65 0 -115 17t-78 41.5t-45 57t-22.5 58t-5.5 49.5zM199 899q0 -65 44 -101t109 -36q66 0 121 36t82 81v110q-4 1 -17 5t-17 5.5t-15.5 4.5t-17 4.5t-16.5 4t-18 3.5t-18.5 2.5t-21 2t-22 1t-25.5 0.5q-70 0 -119 -33t-49 -90z" />
<glyph unicode="&#xab;" horiz-adv-x="915" d="M61 504v20l353 375l71 -68l-270 -317l268 -317l-69 -66zM430 504v20l352 375l72 -68l-270 -317l268 -317l-70 -66z" />
<glyph unicode="&#xac;" horiz-adv-x="1284" d="M164 614v246h956v-633h-272v387h-684z" />
<glyph unicode="&#xad;" horiz-adv-x="819" d="M125 352v127h577v-127h-577z" />
<glyph unicode="&#xae;" horiz-adv-x="1200" d="M82 924q0 131 67.5 249t188 191.5t262.5 73.5q106 0 202 -41t165 -111t110 -166t41 -202q0 -140 -69 -259.5t-188.5 -189.5t-260.5 -70q-132 0 -250.5 67.5t-193 189.5t-74.5 268zM162 918q0 -183 127 -310t311 -127t311 127t127 310q0 184 -127 312t-311 128t-311 -128 t-127 -312zM422 645v557h213q54 0 94.5 -17.5t62.5 -45.5t32 -58t10 -61q0 -58 -33.5 -107t-89.5 -67l102 -201h-88l-98 193h-121v-193h-84zM506 915h137q24 0 43.5 8t30 20t17.5 27t9 27t2 23q0 17 -4 33.5t-14.5 34t-33 28t-54.5 10.5h-133v-211z" />
<glyph unicode="&#xaf;" horiz-adv-x="1056" d="M231 1221v112h617v-112h-617z" />
<glyph unicode="&#xb0;" horiz-adv-x="675" d="M61 1178q0 115 80.5 195.5t196.5 80.5t196 -80t80 -196t-80.5 -196.5t-195.5 -80.5q-116 0 -196.5 80.5t-80.5 196.5zM156 1178q0 -78 52 -130.5t130 -52.5q75 0 127.5 52.5t52.5 130.5q0 75 -52.5 127.5t-127.5 52.5q-78 0 -130 -52t-52 -128z" />
<glyph unicode="&#xb1;" horiz-adv-x="1132" d="M164 82v119h805v-119h-805zM164 610v121h342v342h121v-342h342v-121h-342v-256h-121v256h-342z" />
<glyph unicode="&#xb2;" horiz-adv-x="538" d="M41 979l272 344q56 66 62 111q4 18 0 39.5t-13 40t-33 30.5t-59 12q-70 0 -159 -79l-60 61q104 107 217 107q97 0 155 -56t52 -157q-7 -67 -86 -170l-162 -203h232v-94h-412z" />
<glyph unicode="&#xb3;" horiz-adv-x="526" d="M41 1036l55 66q82 -66 148 -66q51 0 87 29.5t36 83.5q0 53 -35.5 79.5t-87.5 26.5h-84v84h84q52 0 87.5 27.5t35.5 81.5q0 53 -36 82t-87 29q-67 0 -146 -60l-53 60q95 86 199 86q64 0 110 -20t68.5 -52t32.5 -63t10 -62q0 -87 -78 -152q78 -65 78 -147q0 -31 -10 -62 t-32.5 -63t-68.5 -52t-110 -20q-48 0 -90 14t-64 29.5t-49 40.5z" />
<glyph unicode="&#xb4;" horiz-adv-x="1044" d="M422 1292l317 236l78 -117l-336 -205z" />
<glyph unicode="&#xb6;" horiz-adv-x="1345" d="M82 1016q0 55 12 110t41.5 111.5t74 99.5t116.5 70t161 27h695v-105h-150v-1735h-104v1735h-275v-1735h-104v1004h-62q-89 0 -161 27t-116.5 70t-74 99.5t-41.5 111.5t-12 110z" />
<glyph unicode="&#xb7;" horiz-adv-x="483" d="M123 608q0 50 33.5 83.5t83.5 33.5t85 -34t35 -83q0 -51 -35 -86t-85 -35q-49 0 -83 35t-34 86z" />
<glyph unicode="&#xb8;" horiz-adv-x="1134" d="M483 -401l41 84q60 -35 117 -35t83 33t26 67q0 36 -26.5 63t-86.5 27h-68l-12 12v187h98v-113h27q85 -4 131.5 -55.5t46.5 -112.5q0 -100 -61.5 -154.5t-147.5 -54.5q-95 0 -168 52z" />
<glyph unicode="&#xb9;" horiz-adv-x="405" d="M41 1470l229 166h33v-675h-104v514l-115 -70z" />
<glyph unicode="&#xba;" horiz-adv-x="774" d="M82 1128q0 41 8.5 82.5t31 85t56 76t87.5 53.5t122 21t122 -21t87.5 -53.5t56 -76t31 -85t8.5 -82.5q0 -43 -8.5 -84.5t-31 -84.5t-56 -75t-87.5 -52.5t-122 -20.5t-122 20.5t-87.5 52.5t-56 75t-31 84.5t-8.5 84.5zM121 512v100h530v-100h-530zM195 1128 q0 -21 3.5 -45.5t15.5 -57.5t31.5 -58.5t56.5 -43.5t85 -18t85 18t56.5 43.5t32 58.5t16 57.5t3.5 45.5t-3.5 44.5t-16 56.5t-32 58t-56.5 43t-85 18t-85 -18t-56.5 -43t-31.5 -58t-15.5 -56.5t-3.5 -44.5z" />
<glyph unicode="&#xbb;" horiz-adv-x="915" d="M61 831l72 68l352 -375v-20l-352 -373l-70 66l269 317zM430 831l72 68l352 -375v-20l-352 -373l-70 66l268 317z" />
<glyph unicode="&#xbc;" horiz-adv-x="1114" d="M41 1268l229 166h33v-676h-104v514q-13 -7 -54 -33.5t-61 -36.5zM100 0l717 1434h123l-715 -1434h-125zM524 131v59l312 482h84v-449h92v-92h-92v-131h-105v131h-291zM653 223h162v250z" />
<glyph unicode="&#xbd;" horiz-adv-x="1198" d="M41 1268l229 166h33v-676h-104v514q-13 -7 -54 -33.5t-61 -36.5zM100 0l717 1434h123l-715 -1434h-125zM639 0v35l272 323q56 60 62 111q9 49 -15 86t-90 37q-69 0 -159 -80l-60 61q104 107 217 107q97 0 155 -56t52 -157q-7 -67 -86 -170l-180 -203h250v-94h-418z" />
<glyph unicode="&#xbe;" horiz-adv-x="1226" d="M61 834l56 65q81 -65 147 -65q51 0 87 29t36 83q0 53 -35.5 80t-87.5 27h-84v84h84q52 0 87.5 27t35.5 81q0 53 -36 82t-87 29q-66 0 -145 -60l-53 60q27 25 49.5 41t63 30.5t85.5 14.5q64 0 110 -20t68.5 -52t32.5 -63t10 -62q0 -87 -77 -151q77 -64 77 -148 q0 -31 -10 -61.5t-32.5 -62.5t-68.5 -52t-110 -20q-48 0 -90 14t-64 29.5t-49 40.5zM193 0l716 1434h123l-715 -1434h-124zM616 131v59l312 482h84v-449h92v-92h-92v-131h-105v131h-291zM745 223h162v250z" />
<glyph unicode="&#xbf;" horiz-adv-x="1105" d="M164 -82q0 97 53.5 187.5t138.5 185.5q57 65 88 114t35 93v125h154v-127q0 -50 -22 -100t-47 -82.5t-70 -82.5q-3 -3 -28.5 -33.5t-30 -36.5t-25 -33t-25.5 -38t-18.5 -36t-17.5 -42.5t-8.5 -42t-4.5 -49.5q0 -26 4.5 -50.5t19 -53.5t38 -50.5t65.5 -35t98 -11.5 q78 1 139.5 38.5t147.5 119.5l94 -92q-101 -110 -195.5 -157.5t-226.5 -47.5q-158 0 -257 88.5t-99 249.5zM446 930q0 45 31 75.5t78 30.5q45 0 77 -31t32 -75t-32 -74.5t-77 -30.5q-47 0 -78 30t-31 75z" />
<glyph unicode="&#xc0;" d="M61 0l621 1460h27l628 -1460h-194l-166 395h-563l-162 -395h-191zM473 539h445l-224 538zM502 1821l78 116l317 -235l-59 -86z" />
<glyph unicode="&#xc1;" d="M61 0l621 1460h27l628 -1460h-194l-166 395h-563l-162 -395h-191zM473 539h445l-224 538zM502 1702l317 235l78 -116l-336 -205z" />
<glyph unicode="&#xc2;" d="M61 0l621 1460h27l628 -1460h-194l-166 395h-563l-162 -395h-191zM381 1702l317 235l318 -235l-60 -86l-258 158l-258 -158zM473 539h445l-224 538z" />
<glyph unicode="&#xc3;" d="M61 0l621 1460h27l628 -1460h-194l-166 395h-563l-162 -395h-191zM383 1665q30 89 85 128.5t120 39.5q41 0 77.5 -20.5t70 -41t67.5 -20.5q19 0 34 4t38 22t45 52l94 -51q-75 -154 -215 -154q-46 0 -106.5 41t-106.5 41q-33 0 -59.5 -17t-53.5 -67zM473 539h445l-224 538 z" />
<glyph unicode="&#xc4;" d="M61 0l621 1460h27l628 -1460h-194l-166 395h-563l-162 -395h-191zM338 1726q0 45 30 76t74 31t75.5 -31.5t31.5 -75.5t-31 -74t-76 -30q-44 0 -74 30t-30 74zM473 539h445l-224 538zM848 1726q0 45 30 76t74 31t75.5 -31.5t31.5 -75.5t-31 -74t-76 -30q-44 0 -74 30 t-30 74z" />
<glyph unicode="&#xc5;" d="M61 0l621 1460h27l628 -1460h-194l-166 395h-563l-162 -395h-191zM473 539h445l-224 538zM492 1819q0 86 61 147.5t147 61.5t146.5 -61.5t60.5 -147.5t-60.5 -146.5t-146.5 -60.5t-147 60.5t-61 146.5zM600 1819q0 -39 29.5 -69t70.5 -30q38 0 68.5 30.5t30.5 68.5 q0 41 -30 70.5t-69 29.5q-41 0 -70.5 -29.5t-29.5 -70.5z" />
<glyph unicode="&#xc6;" horiz-adv-x="1744" d="M61 0l609 1434h952v-148h-754v-506h590v-147h-590v-486h754v-147h-928v395h-280l-162 -395h-191zM473 539h221v538z" />
<glyph unicode="&#xc7;" horiz-adv-x="1470" d="M123 723q0 67 10 135t34.5 141.5t61.5 138.5t94 124.5t128 102.5t168.5 68t211.5 25q170 0 293.5 -55t223.5 -160l-109 -106q-76 71 -187 121.5t-221 50.5q-96 0 -175.5 -25t-133 -65.5t-95 -95t-64.5 -108.5t-38 -112.5t-19.5 -101t-4.5 -78.5q0 -37 4.5 -79 t19.5 -100.5t38 -112.5t64.5 -108.5t95 -94t133 -64.5t175.5 -25q216 0 414 166q17 -23 50 -62t51 -63q-203 -190 -486 -198v-58h27q84 -4 131 -55.5t47 -112.5q4 -99 -60 -154t-149 -55q-95 0 -168 52l41 84q60 -35 117 -35q59 0 83.5 34t24.5 70q-2 35 -29 60.5t-83 25.5 h-68l-12 12v136q-142 9 -255 61.5t-183 127.5t-117 172t-65.5 189.5t-18.5 186.5z" />
<glyph unicode="&#xc8;" horiz-adv-x="1255" d="M205 0v1434h928v-148h-754v-506h590v-147h-590v-486h754v-147h-928zM430 1821l78 116l317 -235l-59 -86z" />
<glyph unicode="&#xc9;" horiz-adv-x="1255" d="M205 0v1434h928v-148h-754v-506h590v-147h-590v-486h754v-147h-928zM430 1702l318 235l77 -116l-336 -205z" />
<glyph unicode="&#xca;" horiz-adv-x="1255" d="M205 0v1434h928v-148h-754v-506h590v-147h-590v-486h754v-147h-928zM309 1702l318 235l317 -235l-59 -86l-258 158l-258 -158z" />
<glyph unicode="&#xcb;" horiz-adv-x="1255" d="M205 0v1434h928v-148h-754v-506h590v-147h-590v-486h754v-147h-928zM266 1726q0 44 30.5 75.5t74.5 31.5t75 -31.5t31 -75.5t-31 -74t-75 -30t-74.5 30t-30.5 74zM776 1726q0 44 30.5 75.5t74.5 31.5t75 -31.5t31 -75.5t-31 -74t-75 -30t-74.5 30t-30.5 74z" />
<glyph unicode="&#xcc;" horiz-adv-x="477" d="M41 1821l78 116l317 -235l-59 -86zM152 0v1434h174v-1434h-174z" />
<glyph unicode="&#xcd;" horiz-adv-x="477" d="M41 1702l317 235l78 -116l-336 -205zM152 0v1434h174v-1434h-174z" />
<glyph unicode="&#xce;" horiz-adv-x="634" d="M0 1702l317 235l318 -235l-60 -86l-258 158l-258 -158zM229 0v1434h174v-1434h-174z" />
<glyph unicode="&#xcf;" horiz-adv-x="720" d="M0 1726q0 45 30 76t74 31t75.5 -31.5t31.5 -75.5t-31 -74t-76 -30q-44 0 -74 30t-30 74zM272 0v1434h174v-1434h-174zM510 1726q0 45 30 76t74 31t75.5 -31.5t31.5 -75.5t-31 -74t-76 -30q-44 0 -74 30t-30 74z" />
<glyph unicode="&#xd0;" horiz-adv-x="1507" d="M61 645v125h125v664h490q114 0 211.5 -24t168.5 -65t128 -98.5t94 -120.5t61.5 -134.5t34.5 -138.5t10 -134q0 -98 -20.5 -193t-72 -192t-129.5 -169.5t-203.5 -118.5t-282.5 -46h-490v645h-125zM360 147h316q96 0 175.5 24.5t133 63t95 91.5t64.5 105.5t38 110t19.5 99 t4.5 78.5t-4.5 78.5t-19.5 98.5t-38 109t-64.5 105t-95 91.5t-133 62.5t-175.5 24h-316v-518h385v-125h-385v-498z" />
<glyph unicode="&#xd1;" horiz-adv-x="1562" d="M205 0v1438l20 6l959 -1034v1024h174v-1436l-19 -6l-958 1032v-1024h-176zM465 1665q30 89 85 128.5t120 39.5q41 0 77.5 -20.5t70 -41t67.5 -20.5q19 0 34 4t37.5 22t44.5 52l95 -51q-75 -154 -215 -154q-46 0 -106.5 41t-106.5 41q-33 0 -59.5 -17t-53.5 -67z" />
<glyph unicode="&#xd2;" horiz-adv-x="1662" d="M123 719q0 67 10 135t34.5 141.5t61.5 138.5t94 124.5t128 102.5t168.5 68t211.5 25t211.5 -25t168.5 -68t128.5 -102.5t94 -124.5t61 -138.5t35 -141.5t10.5 -135q0 -69 -10.5 -138t-35 -142.5t-61 -139t-94 -124t-128.5 -101t-168.5 -67.5t-211.5 -25t-211.5 25 t-168.5 67.5t-128 101.5t-94 124t-61.5 138.5t-34.5 142.5t-10 138zM301 719q0 -36 4.5 -78t19.5 -100t38 -111.5t64.5 -107.5t95 -93.5t133 -64.5t175.5 -25q95 0 174.5 25t133 64.5t95 93.5t64.5 107.5t38 111.5t19.5 100t4.5 78t-4.5 78t-19.5 99.5t-38 110t-64.5 106.5 t-95 93t-133 63.5t-174.5 24.5q-96 0 -175.5 -24.5t-133 -63.5t-95 -93t-64.5 -106.5t-38 -110t-19.5 -99.5t-4.5 -78zM633 1821l78 116l317 -235l-59 -86z" />
<glyph unicode="&#xd3;" horiz-adv-x="1662" d="M123 719q0 67 10 135t34.5 141.5t61.5 138.5t94 124.5t128 102.5t168.5 68t211.5 25t211.5 -25t168.5 -68t128.5 -102.5t94 -124.5t61 -138.5t35 -141.5t10.5 -135q0 -69 -10.5 -138t-35 -142.5t-61 -139t-94 -124t-128.5 -101t-168.5 -67.5t-211.5 -25t-211.5 25 t-168.5 67.5t-128 101.5t-94 124t-61.5 138.5t-34.5 142.5t-10 138zM301 719q0 -36 4.5 -78t19.5 -100t38 -111.5t64.5 -107.5t95 -93.5t133 -64.5t175.5 -25q95 0 174.5 25t133 64.5t95 93.5t64.5 107.5t38 111.5t19.5 100t4.5 78t-4.5 78t-19.5 99.5t-38 110t-64.5 106.5 t-95 93t-133 63.5t-174.5 24.5q-96 0 -175.5 -24.5t-133 -63.5t-95 -93t-64.5 -106.5t-38 -110t-19.5 -99.5t-4.5 -78zM633 1702l317 235l78 -116l-336 -205z" />
<glyph unicode="&#xd4;" horiz-adv-x="1662" d="M123 719q0 67 10 135t34.5 141.5t61.5 138.5t94 124.5t128 102.5t168.5 68t211.5 25t211.5 -25t168.5 -68t128.5 -102.5t94 -124.5t61 -138.5t35 -141.5t10.5 -135q0 -69 -10.5 -138t-35 -142.5t-61 -139t-94 -124t-128.5 -101t-168.5 -67.5t-211.5 -25t-211.5 25 t-168.5 67.5t-128 101.5t-94 124t-61.5 138.5t-34.5 142.5t-10 138zM301 719q0 -36 4.5 -78t19.5 -100t38 -111.5t64.5 -107.5t95 -93.5t133 -64.5t175.5 -25q95 0 174.5 25t133 64.5t95 93.5t64.5 107.5t38 111.5t19.5 100t4.5 78t-4.5 78t-19.5 99.5t-38 110t-64.5 106.5 t-95 93t-133 63.5t-174.5 24.5q-96 0 -175.5 -24.5t-133 -63.5t-95 -93t-64.5 -106.5t-38 -110t-19.5 -99.5t-4.5 -78zM514 1702l317 235l318 -235l-59 -86l-259 158l-258 -158z" />
<glyph unicode="&#xd5;" horiz-adv-x="1662" d="M123 719q0 67 10 135t34.5 141.5t61.5 138.5t94 124.5t128 102.5t168.5 68t211.5 25t211.5 -25t168.5 -68t128.5 -102.5t94 -124.5t61 -138.5t35 -141.5t10.5 -135q0 -69 -10.5 -138t-35 -142.5t-61 -139t-94 -124t-128.5 -101t-168.5 -67.5t-211.5 -25t-211.5 25 t-168.5 67.5t-128 101.5t-94 124t-61.5 138.5t-34.5 142.5t-10 138zM301 719q0 -36 4.5 -78t19.5 -100t38 -111.5t64.5 -107.5t95 -93.5t133 -64.5t175.5 -25q95 0 174.5 25t133 64.5t95 93.5t64.5 107.5t38 111.5t19.5 100t4.5 78t-4.5 78t-19.5 99.5t-38 110t-64.5 106.5 t-95 93t-133 63.5t-174.5 24.5q-96 0 -175.5 -24.5t-133 -63.5t-95 -93t-64.5 -106.5t-38 -110t-19.5 -99.5t-4.5 -78zM516 1665q30 89 85 128.5t120 39.5q41 0 77.5 -20.5t70 -41t67.5 -20.5q19 0 34 4t38 22t45 52l94 -51q-75 -154 -215 -154q-46 0 -106.5 41t-106.5 41 q-33 0 -59.5 -17t-53.5 -67z" />
<glyph unicode="&#xd6;" horiz-adv-x="1662" d="M123 719q0 67 10 135t34.5 141.5t61.5 138.5t94 124.5t128 102.5t168.5 68t211.5 25t211.5 -25t168.5 -68t128.5 -102.5t94 -124.5t61 -138.5t35 -141.5t10.5 -135q0 -69 -10.5 -138t-35 -142.5t-61 -139t-94 -124t-128.5 -101t-168.5 -67.5t-211.5 -25t-211.5 25 t-168.5 67.5t-128 101.5t-94 124t-61.5 138.5t-34.5 142.5t-10 138zM301 719q0 -36 4.5 -78t19.5 -100t38 -111.5t64.5 -107.5t95 -93.5t133 -64.5t175.5 -25q95 0 174.5 25t133 64.5t95 93.5t64.5 107.5t38 111.5t19.5 100t4.5 78t-4.5 78t-19.5 99.5t-38 110t-64.5 106.5 t-95 93t-133 63.5t-174.5 24.5q-96 0 -175.5 -24.5t-133 -63.5t-95 -93t-64.5 -106.5t-38 -110t-19.5 -99.5t-4.5 -78zM471 1726q0 45 30 76t74 31t75.5 -31.5t31.5 -75.5t-31 -74t-76 -30q-44 0 -74 30t-30 74zM981 1726q0 45 30 76t74 31t75.5 -31.5t31.5 -75.5t-31 -74 t-76 -30q-44 0 -74 30t-30 74z" />
<glyph unicode="&#xd7;" horiz-adv-x="1073" d="M205 156l246 247l-244 246l82 82l246 -246l245 246l86 -82l-245 -246l247 -247l-86 -86l-247 247l-248 -247z" />
<glyph unicode="&#xd8;" horiz-adv-x="1662" d="M123 719q0 67 10 135t34.5 141.5t61.5 138.5t94 124.5t128 102.5t168.5 68t211.5 25q251 0 424 -123l99 117l88 -74l-101 -119q103 -108 151 -251t48 -285q0 -69 -10.5 -138t-35 -142.5t-61 -139t-94 -124t-128.5 -101t-168.5 -67.5t-211.5 -25q-273 0 -446 137l-98 -117 l-88 74l102 123q-92 106 -135 243t-43 277zM301 719q0 -84 25 -189t90 -196l729 866q-130 94 -314 94q-96 0 -175.5 -24.5t-133 -63.5t-95 -93t-64.5 -106.5t-38 -110t-19.5 -99.5t-4.5 -78zM496 250q135 -111 335 -111q95 0 174.5 25t133 64.5t95 93.5t64.5 107.5t38 111.5 t19.5 100t4.5 78q0 87 -29.5 198.5t-101.5 202.5z" />
<glyph unicode="&#xd9;" horiz-adv-x="1474" d="M184 541v893h172v-893q0 -38 10 -85.5t37 -106.5t67.5 -106t109.5 -79.5t155 -32.5q87 0 156 32.5t109.5 79.5t67.5 106t36.5 106.5t9.5 85.5v893h176v-893q0 -75 -17.5 -149.5t-59.5 -148.5t-104 -130.5t-158.5 -91.5t-215.5 -35q-118 0 -214 35t-157.5 91.5t-103 130.5 t-59 148.5t-17.5 149.5zM539 1821l77 116l318 -235l-60 -86z" />
<glyph unicode="&#xda;" horiz-adv-x="1474" d="M184 541v893h172v-893q0 -38 10 -85.5t37 -106.5t67.5 -106t109.5 -79.5t155 -32.5q87 0 156 32.5t109.5 79.5t67.5 106t36.5 106.5t9.5 85.5v893h176v-893q0 -75 -17.5 -149.5t-59.5 -148.5t-104 -130.5t-158.5 -91.5t-215.5 -35q-118 0 -214 35t-157.5 91.5t-103 130.5 t-59 148.5t-17.5 149.5zM539 1702l317 235l78 -116l-336 -205z" />
<glyph unicode="&#xdb;" horiz-adv-x="1474" d="M184 541v893h172v-893q0 -38 10 -85.5t37 -106.5t67.5 -106t109.5 -79.5t155 -32.5q87 0 156 32.5t109.5 79.5t67.5 106t36.5 106.5t9.5 85.5v893h176v-893q0 -75 -17.5 -149.5t-59.5 -148.5t-104 -130.5t-158.5 -91.5t-215.5 -35q-118 0 -214 35t-157.5 91.5t-103 130.5 t-59 148.5t-17.5 149.5zM420 1702l317 235l318 -235l-60 -86l-258 158l-258 -158z" />
<glyph unicode="&#xdc;" horiz-adv-x="1474" d="M184 541v893h172v-893q0 -38 10 -85.5t37 -106.5t67.5 -106t109.5 -79.5t155 -32.5q87 0 156 32.5t109.5 79.5t67.5 106t36.5 106.5t9.5 85.5v893h176v-893q0 -75 -17.5 -149.5t-59.5 -148.5t-104 -130.5t-158.5 -91.5t-215.5 -35q-118 0 -214 35t-157.5 91.5t-103 130.5 t-59 148.5t-17.5 149.5zM377 1726q0 45 30 76t74 31t75.5 -31.5t31.5 -75.5t-31 -74t-76 -30q-44 0 -74 30t-30 74zM887 1726q0 45 30 76t74 31t75.5 -31.5t31.5 -75.5t-31 -74t-76 -30q-44 0 -74 30t-30 74z" />
<glyph unicode="&#xdd;" horiz-adv-x="1273" d="M61 1434h197l377 -621l377 621h200l-489 -783v-651h-176v649zM438 1702l318 235l78 -116l-336 -205z" />
<glyph unicode="&#xde;" horiz-adv-x="1282" d="M205 0v1434h170v-195h278q111 0 200.5 -34t145 -88t93 -124.5t52.5 -139t15 -136.5t-15 -136.5t-52.5 -139t-93 -124.5t-145 -88t-200.5 -34h-278v-195h-170zM375 336h262q84 0 150 29t104 71t62.5 96.5t33 99.5t8.5 85t-8.5 85t-33 99.5t-62.5 96.5t-104 71t-150 29 h-262v-762z" />
<glyph unicode="&#xdf;" horiz-adv-x="1310" d="M205 -82v1124q0 83 22 150t54.5 108.5t78.5 72t84 45t81.5 22.5t61 9t31.5 1q101 0 180.5 -27.5t125.5 -68.5t76 -94.5t40.5 -99t10.5 -87.5q0 -55 -15 -100.5t-36 -74.5t-42 -53.5t-36 -47.5t-15 -45q0 -33 20.5 -64.5t49.5 -61.5t58.5 -65t50 -89.5t20.5 -119.5 q0 -168 -131 -270t-381 -102h-21v135h43q86 0 149 20.5t96.5 57t49 77.5t15.5 90q0 45 -21.5 88t-52 77t-61.5 66.5t-52.5 69.5t-21.5 72q0 33 17.5 64.5t43 59t51 57.5t43 71.5t17.5 89.5q0 8 -0.5 15.5t-5 32.5t-13 45.5t-27 47t-44 44.5t-67 30.5t-93.5 12.5 q-31 0 -61.5 -5t-68 -21.5t-65 -43.5t-46.5 -75t-19 -111v-1129h-174z" />
<glyph unicode="&#xe0;" horiz-adv-x="1089" d="M123 281q0 92 31.5 159t88 104t123.5 53.5t148 16.5q130 0 240 -26v41q0 91 -15 148.5t-47.5 84.5t-70.5 34t-97 3q-50 -5 -129.5 -24t-146.5 -46l-49 123q181 88 364 88q70 0 125.5 -13.5t93.5 -34.5t65 -55.5t42 -68t23.5 -80t11 -84.5t2.5 -88v-616h-90l-39 133 q-59 -77 -149 -114t-171 -37q-87 0 -153.5 23t-103.5 56t-60 76.5t-30 77.5t-7 66zM279 299q0 -86 58 -131t146 -45q91 0 163 44t108 105v177q-114 28 -236 28q-239 0 -239 -178zM346 1411l78 117l317 -236l-59 -86z" />
<glyph unicode="&#xe1;" horiz-adv-x="1089" d="M123 281q0 92 31.5 159t88 104t123.5 53.5t148 16.5q130 0 240 -26v41q0 91 -15 148.5t-47.5 84.5t-70.5 34t-97 3q-50 -5 -129.5 -24t-146.5 -46l-49 123q181 88 364 88q70 0 125.5 -13.5t93.5 -34.5t65 -55.5t42 -68t23.5 -80t11 -84.5t2.5 -88v-616h-90l-39 133 q-59 -77 -149 -114t-171 -37q-87 0 -153.5 23t-103.5 56t-60 76.5t-30 77.5t-7 66zM279 299q0 -86 58 -131t146 -45q91 0 163 44t108 105v177q-114 28 -236 28q-239 0 -239 -178zM348 1292l318 236l77 -117l-335 -205z" />
<glyph unicode="&#xe2;" horiz-adv-x="1089" d="M123 281q0 92 31.5 159t88 104t123.5 53.5t148 16.5q130 0 240 -26v41q0 91 -15 148.5t-47.5 84.5t-70.5 34t-97 3q-50 -5 -129.5 -24t-146.5 -46l-49 123q181 88 364 88q70 0 125.5 -13.5t93.5 -34.5t65 -55.5t42 -68t23.5 -80t11 -84.5t2.5 -88v-616h-90l-39 133 q-59 -77 -149 -114t-171 -37q-87 0 -153.5 23t-103.5 56t-60 76.5t-30 77.5t-7 66zM227 1292l318 236l317 -236l-59 -86l-258 158l-258 -158zM279 299q0 -86 58 -131t146 -45q91 0 163 44t108 105v177q-114 28 -236 28q-239 0 -239 -178z" />
<glyph unicode="&#xe3;" horiz-adv-x="1089" d="M123 281q0 92 31.5 159t88 104t123.5 53.5t148 16.5q130 0 240 -26v41q0 91 -15 148.5t-47.5 84.5t-70.5 34t-97 3q-50 -5 -129.5 -24t-146.5 -46l-49 123q181 88 364 88q70 0 125.5 -13.5t93.5 -34.5t65 -55.5t42 -68t23.5 -80t11 -84.5t2.5 -88v-616h-90l-39 133 q-59 -77 -149 -114t-171 -37q-87 0 -153.5 23t-103.5 56t-60 76.5t-30 77.5t-7 66zM229 1255q30 89 85 128.5t120 39.5q41 0 77.5 -20.5t70 -41t67.5 -20.5q19 0 34 4t38 22t45 52l94 -51q-75 -154 -215 -154q-46 0 -106.5 41t-106.5 41q-33 0 -59.5 -17t-53.5 -67zM279 299 q0 -86 58 -131t146 -45q91 0 163 44t108 105v177q-114 28 -236 28q-239 0 -239 -178z" />
<glyph unicode="&#xe4;" horiz-adv-x="1089" d="M123 281q0 92 31.5 159t88 104t123.5 53.5t148 16.5q130 0 240 -26v41q0 91 -15 148.5t-47.5 84.5t-70.5 34t-97 3q-50 -5 -129.5 -24t-146.5 -46l-49 123q181 88 364 88q70 0 125.5 -13.5t93.5 -34.5t65 -55.5t42 -68t23.5 -80t11 -84.5t2.5 -88v-616h-90l-39 133 q-59 -77 -149 -114t-171 -37q-87 0 -153.5 23t-103.5 56t-60 76.5t-30 77.5t-7 66zM184 1317q0 44 30.5 75t74.5 31t75 -31t31 -75t-31 -74.5t-75 -30.5t-74.5 30.5t-30.5 74.5zM279 299q0 -86 58 -131t146 -45q91 0 163 44t108 105v177q-114 28 -236 28q-239 0 -239 -178z M694 1317q0 44 30.5 75t74.5 31t75 -31t31 -75t-31 -74.5t-75 -30.5t-74.5 30.5t-30.5 74.5z" />
<glyph unicode="&#xe5;" horiz-adv-x="1089" d="M123 281q0 92 31.5 159t88 104t123.5 53.5t148 16.5q130 0 240 -26v41q0 91 -15 148.5t-47.5 84.5t-70.5 34t-97 3q-50 -5 -129.5 -24t-146.5 -46l-49 123q181 88 364 88q70 0 125.5 -13.5t93.5 -34.5t65 -55.5t42 -68t23.5 -80t11 -84.5t2.5 -88v-616h-90l-39 133 q-59 -77 -149 -114t-171 -37q-87 0 -153.5 23t-103.5 56t-60 76.5t-30 77.5t-7 66zM279 299q0 -86 58 -131t146 -45q91 0 163 44t108 105v177q-114 28 -236 28q-239 0 -239 -178zM336 1409q0 86 61.5 147.5t147.5 61.5t146.5 -61.5t60.5 -147.5t-60.5 -146.5t-146.5 -60.5 t-147.5 60.5t-61.5 146.5zM444 1409q0 -39 30 -68.5t71 -29.5q38 0 68 30t30 68q0 41 -29.5 70.5t-68.5 29.5q-41 0 -71 -29.5t-30 -70.5z" />
<glyph unicode="&#xe6;" horiz-adv-x="1718" d="M123 281q0 92 31.5 159t88 104t123.5 53.5t148 16.5q124 0 199 -16q8 64 32 137q-8 57 -26.5 92t-49 51t-63 20t-82.5 1q-50 -5 -129.5 -24t-146.5 -46l-49 123q181 88 364 88q213 0 299 -125q136 129 355 129q195 0 302 -117t107 -315q0 -71 -10 -125h-739q2 -43 13 -88 t37 -95t63 -88.5t96 -63.5t131 -25q178 0 313 119l84 -109q-87 -80 -180.5 -116.5t-216.5 -36.5q-252 0 -388 163q-48 -66 -146 -115.5t-206 -49.5q-87 0 -153.5 23t-103.5 56t-60 76.5t-30 77.5t-7 66zM279 299q0 -86 58 -131t146 -45q91 0 163 44t108 105q-34 80 -45 185 q-110 20 -191 20q-239 0 -239 -178zM881 608h581q6 51 -3 98.5t-35 90.5t-80 70.5t-130 31.5q-80 0 -141.5 -26t-99 -71t-59 -91.5t-33.5 -102.5z" />
<glyph unicode="&#xe7;" horiz-adv-x="1128" d="M123 520q0 68 15 137.5t52 142t93 127.5t146.5 90.5t203.5 35.5q223 0 373 -164l-113 -105q-56 53 -125 81t-137 28q-140 0 -239 -100.5t-99 -272.5q0 -74 22 -144t62.5 -126.5t106 -90.5t145.5 -34q79 0 149.5 30.5t120.5 84.5l92 -105q-138 -145 -327 -155v-56h26 q85 -4 131.5 -55.5t46.5 -112.5q0 -100 -61.5 -154.5t-147.5 -54.5q-94 0 -167 52l40 84q60 -35 117 -35t83 33t26 67q0 36 -26.5 63t-86.5 27h-67l-13 12v132q-101 8 -180.5 45.5t-127.5 91.5t-79.5 124.5t-43 138t-11.5 138.5z" />
<glyph unicode="&#xe8;" horiz-adv-x="1103" d="M92 516q0 69 15 138t52 140.5t93 126t146.5 89t203.5 34.5q195 0 302.5 -117t107.5 -315q0 -66 -11 -125h-739q2 -43 13 -88t37 -95t63 -88.5t96 -63.5t131 -25q178 0 313 119l84 -109q-87 -80 -180.5 -116.5t-216.5 -36.5q-113 0 -203.5 34.5t-146.5 89t-93 126.5 t-52 141.5t-15 140.5zM266 608h582q6 51 -3 98.5t-35 90.5t-80 70.5t-130 31.5q-80 0 -141.5 -26t-99 -70.5t-59.5 -91.5t-34 -103zM354 1411l78 117l318 -236l-60 -86z" />
<glyph unicode="&#xe9;" horiz-adv-x="1103" d="M92 516q0 69 15 138t52 140.5t93 126t146.5 89t203.5 34.5q195 0 302.5 -117t107.5 -315q0 -66 -11 -125h-739q2 -43 13 -88t37 -95t63 -88.5t96 -63.5t131 -25q178 0 313 119l84 -109q-87 -80 -180.5 -116.5t-216.5 -36.5q-113 0 -203.5 34.5t-146.5 89t-93 126.5 t-52 141.5t-15 140.5zM266 608h582q6 51 -3 98.5t-35 90.5t-80 70.5t-130 31.5q-80 0 -141.5 -26t-99 -70.5t-59.5 -91.5t-34 -103zM354 1292l318 236l78 -117l-336 -205z" />
<glyph unicode="&#xea;" horiz-adv-x="1103" d="M92 516q0 69 15 138t52 140.5t93 126t146.5 89t203.5 34.5q195 0 302.5 -117t107.5 -315q0 -66 -11 -125h-739q2 -43 13 -88t37 -95t63 -88.5t96 -63.5t131 -25q178 0 313 119l84 -109q-87 -80 -180.5 -116.5t-216.5 -36.5q-113 0 -203.5 34.5t-146.5 89t-93 126.5 t-52 141.5t-15 140.5zM233 1292l318 236l317 -236l-59 -86l-258 158l-258 -158zM266 608h582q6 51 -3 98.5t-35 90.5t-80 70.5t-130 31.5q-80 0 -141.5 -26t-99 -70.5t-59.5 -91.5t-34 -103z" />
<glyph unicode="&#xeb;" horiz-adv-x="1103" d="M92 516q0 69 15 138t52 140.5t93 126t146.5 89t203.5 34.5q195 0 302.5 -117t107.5 -315q0 -66 -11 -125h-739q2 -43 13 -88t37 -95t63 -88.5t96 -63.5t131 -25q178 0 313 119l84 -109q-87 -80 -180.5 -116.5t-216.5 -36.5q-113 0 -203.5 34.5t-146.5 89t-93 126.5 t-52 141.5t-15 140.5zM233 1317q0 44 30.5 75t74.5 31t75 -31t31 -75t-31 -74.5t-75 -30.5t-74.5 30.5t-30.5 74.5zM266 608h582q6 51 -3 98.5t-35 90.5t-80 70.5t-130 31.5q-80 0 -141.5 -26t-99 -70.5t-59.5 -91.5t-34 -103zM743 1317q0 44 30.5 75t74.5 31t75 -31t31 -75 t-31 -74.5t-75 -30.5t-74.5 30.5t-30.5 74.5z" />
<glyph unicode="&#xec;" horiz-adv-x="477" d="M41 1411l78 117l317 -236l-59 -86zM152 -2v1026h170v-1026h-170z" />
<glyph unicode="&#xed;" horiz-adv-x="477" d="M41 1292l317 236l78 -117l-336 -205zM152 -2v1026h170v-1026h-170z" />
<glyph unicode="&#xee;" horiz-adv-x="634" d="M0 1292l317 236l318 -236l-60 -86l-258 158l-258 -158zM229 -2v1026h170v-1026h-170z" />
<glyph unicode="&#xef;" horiz-adv-x="720" d="M0 1317q0 44 30 75t74 31t75.5 -31t31.5 -75t-31.5 -74.5t-75.5 -30.5t-74 30.5t-30 74.5zM272 -2v1026h170v-1026h-170zM510 1317q0 44 30 75t74 31t75.5 -31t31.5 -75t-31.5 -74.5t-75.5 -30.5t-74 30.5t-30 74.5z" />
<glyph unicode="&#xf0;" horiz-adv-x="1193" d="M125 430q0 47 8.5 94t27 101.5t54.5 101t86 85.5t126.5 61t170.5 22q143 0 258 -82q-68 194 -225 336l-150 -148l-90 91l139 137q-41 28 -120 78l69 106q86 -41 150 -86l121 121l92 -86l-113 -113q153 -135 246.5 -334t93.5 -460q0 -34 -5.5 -71.5t-20.5 -83.5t-38 -88 t-60.5 -83t-84.5 -71.5t-114.5 -49.5t-147.5 -20q-109 -2 -195.5 31t-137 83.5t-83.5 114.5t-45 116.5t-12 96.5zM289 444q0 -128 82 -221.5t227 -93.5q74 0 134.5 28.5t98 75t58 103.5t20.5 117q-5 135 -83.5 219t-227.5 84q-76 0 -136 -26.5t-97 -71t-56.5 -99.5 t-19.5 -115z" />
<glyph unicode="&#xf1;" horiz-adv-x="1179" d="M164 0v1024h88l41 -127q135 143 336 143q79 0 142.5 -16t107.5 -43t76.5 -67.5t51.5 -83t30.5 -96.5t15.5 -101.5t4 -104.5v-528h-172v526v41.5t-2.5 47t-6.5 53.5t-13 52t-21.5 52t-33.5 43.5t-47 37.5t-62.5 22.5t-80.5 9.5q-87 0 -169 -50.5t-115 -103.5v-731h-170z M274 1255q30 89 85 128.5t120 39.5q41 0 77.5 -20.5t70 -41t67.5 -20.5q19 0 34 4t38 22t45 52l94 -51q-75 -154 -215 -154q-46 0 -106.5 41t-106.5 41q-33 0 -59 -17t-53 -67z" />
<glyph unicode="&#xf2;" horiz-adv-x="1265" d="M123 512q0 69 15 138t52.5 140.5t93.5 126t146.5 89t202.5 34.5q113 0 203.5 -34.5t146.5 -89t93 -126t52 -140.5t15 -138q0 -71 -15 -140.5t-52 -140.5t-93 -125t-146.5 -88t-203.5 -34q-112 0 -202.5 34t-146.5 88t-93.5 125t-52.5 140.5t-15 140.5zM293 512 q0 -30 5 -64t17 -80t37 -86.5t60.5 -76.5t92.5 -57t128 -21q62 0 113.5 16.5t86 42.5t61 61.5t41.5 71t24.5 74t12.5 66.5t3 53t-3 53t-12.5 66.5t-24.5 74t-41.5 71t-61 61.5t-86 42.5t-113.5 16.5q-71 0 -128 -21t-92.5 -57t-60.5 -76.5t-37 -86.5t-17 -80t-5 -64z M434 1411l78 117l317 -236l-59 -86z" />
<glyph unicode="&#xf3;" horiz-adv-x="1265" d="M123 512q0 69 15 138t52.5 140.5t93.5 126t146.5 89t202.5 34.5q113 0 203.5 -34.5t146.5 -89t93 -126t52 -140.5t15 -138q0 -71 -15 -140.5t-52 -140.5t-93 -125t-146.5 -88t-203.5 -34q-112 0 -202.5 34t-146.5 88t-93.5 125t-52.5 140.5t-15 140.5zM293 512 q0 -30 5 -64t17 -80t37 -86.5t60.5 -76.5t92.5 -57t128 -21q62 0 113.5 16.5t86 42.5t61 61.5t41.5 71t24.5 74t12.5 66.5t3 53t-3 53t-12.5 66.5t-24.5 74t-41.5 71t-61 61.5t-86 42.5t-113.5 16.5q-71 0 -128 -21t-92.5 -57t-60.5 -76.5t-37 -86.5t-17 -80t-5 -64z M434 1292l318 236l77 -117l-335 -205z" />
<glyph unicode="&#xf4;" horiz-adv-x="1265" d="M123 512q0 69 15 138t52.5 140.5t93.5 126t146.5 89t202.5 34.5q113 0 203.5 -34.5t146.5 -89t93 -126t52 -140.5t15 -138q0 -71 -15 -140.5t-52 -140.5t-93 -125t-146.5 -88t-203.5 -34q-112 0 -202.5 34t-146.5 88t-93.5 125t-52.5 140.5t-15 140.5zM293 512 q0 -30 5 -64t17 -80t37 -86.5t60.5 -76.5t92.5 -57t128 -21q62 0 113.5 16.5t86 42.5t61 61.5t41.5 71t24.5 74t12.5 66.5t3 53t-3 53t-12.5 66.5t-24.5 74t-41.5 71t-61 61.5t-86 42.5t-113.5 16.5q-71 0 -128 -21t-92.5 -57t-60.5 -76.5t-37 -86.5t-17 -80t-5 -64z M315 1292l318 236l317 -236l-59 -86l-258 158l-258 -158z" />
<glyph unicode="&#xf5;" horiz-adv-x="1265" d="M123 512q0 69 15 138t52.5 140.5t93.5 126t146.5 89t202.5 34.5q113 0 203.5 -34.5t146.5 -89t93 -126t52 -140.5t15 -138q0 -71 -15 -140.5t-52 -140.5t-93 -125t-146.5 -88t-203.5 -34q-112 0 -202.5 34t-146.5 88t-93.5 125t-52.5 140.5t-15 140.5zM293 512 q0 -30 5 -64t17 -80t37 -86.5t60.5 -76.5t92.5 -57t128 -21q62 0 113.5 16.5t86 42.5t61 61.5t41.5 71t24.5 74t12.5 66.5t3 53t-3 53t-12.5 66.5t-24.5 74t-41.5 71t-61 61.5t-86 42.5t-113.5 16.5q-71 0 -128 -21t-92.5 -57t-60.5 -76.5t-37 -86.5t-17 -80t-5 -64z M317 1255q30 89 85 128.5t120 39.5q41 0 77.5 -20.5t70 -41t67.5 -20.5q19 0 34 4t38 22t45 52l94 -51q-75 -154 -215 -154q-46 0 -106.5 41t-106.5 41q-33 0 -59 -17t-53 -67z" />
<glyph unicode="&#xf6;" horiz-adv-x="1265" d="M123 512q0 69 15 138t52.5 140.5t93.5 126t146.5 89t202.5 34.5q113 0 203.5 -34.5t146.5 -89t93 -126t52 -140.5t15 -138q0 -71 -15 -140.5t-52 -140.5t-93 -125t-146.5 -88t-203.5 -34q-112 0 -202.5 34t-146.5 88t-93.5 125t-52.5 140.5t-15 140.5zM272 1317 q0 44 30.5 75t74.5 31t75 -31t31 -75t-31 -74.5t-75 -30.5t-74.5 30.5t-30.5 74.5zM293 512q0 -30 5 -64t17 -80t37 -86.5t60.5 -76.5t92.5 -57t128 -21q62 0 113.5 16.5t86 42.5t61 61.5t41.5 71t24.5 74t12.5 66.5t3 53t-3 53t-12.5 66.5t-24.5 74t-41.5 71t-61 61.5 t-86 42.5t-113.5 16.5q-71 0 -128 -21t-92.5 -57t-60.5 -76.5t-37 -86.5t-17 -80t-5 -64zM782 1317q0 44 30.5 75t74.5 31t75 -31t31 -75t-31 -74.5t-75 -30.5t-74.5 30.5t-30.5 74.5z" />
<glyph unicode="&#xf7;" horiz-adv-x="946" d="M125 326v153h698v-153h-698zM367 125q0 47 29.5 76.5t76.5 29.5q45 0 77 -30t32 -76q0 -44 -32.5 -77.5t-76.5 -33.5q-46 0 -76 33t-30 78zM367 709q0 47 29.5 77.5t76.5 30.5q45 0 77 -31t32 -77q0 -44 -32.5 -77.5t-76.5 -33.5q-46 0 -76 33t-30 78z" />
<glyph unicode="&#xf8;" horiz-adv-x="1265" d="M123 512q0 69 15 138t52.5 140.5t93.5 126t146.5 89t202.5 34.5q170 0 285 -75l69 82l88 -74l-69 -82q70 -77 103.5 -178t33.5 -201q0 -71 -15 -140.5t-52 -140.5t-93 -125t-146.5 -88t-203.5 -34q-187 0 -314 92l-67 -80l-88 74l74 86q-115 145 -115 356zM293 512 q0 -129 55 -225l471 559q-77 51 -186 51q-71 0 -128 -21t-92.5 -57t-60.5 -76.5t-37 -86.5t-17 -80t-5 -64zM420 197q87 -70 213 -70q62 0 113.5 16.5t86 42.5t61 61.5t41.5 71t24.5 74t12.5 66.5t3 53q0 53 -17.5 125t-56.5 129z" />
<glyph unicode="&#xf9;" horiz-adv-x="1179" d="M123 496v528h172v-526q0 -133 23 -200q55 -159 243 -159q87 0 168.5 50t116.5 104v731h170v-1024h-88l-41 127q-135 -143 -336 -143q-79 0 -142.5 16t-107.5 43t-76.5 67.5t-51.5 83t-30.5 96.5t-15.5 101.5t-4 104.5zM391 1411l78 117l317 -236l-59 -86z" />
<glyph unicode="&#xfa;" horiz-adv-x="1179" d="M123 496v528h172v-526q0 -133 23 -200q55 -159 243 -159q87 0 168.5 50t116.5 104v731h170v-1024h-88l-41 127q-135 -143 -336 -143q-79 0 -142.5 16t-107.5 43t-76.5 67.5t-51.5 83t-30.5 96.5t-15.5 101.5t-4 104.5zM393 1292l318 236l77 -117l-335 -205z" />
<glyph unicode="&#xfb;" horiz-adv-x="1179" d="M123 496v528h172v-526q0 -133 23 -200q55 -159 243 -159q87 0 168.5 50t116.5 104v731h170v-1024h-88l-41 127q-135 -143 -336 -143q-79 0 -142.5 16t-107.5 43t-76.5 67.5t-51.5 83t-30.5 96.5t-15.5 101.5t-4 104.5zM272 1292l318 236l317 -236l-59 -86l-258 158 l-258 -158z" />
<glyph unicode="&#xfc;" horiz-adv-x="1179" d="M123 496v528h172v-526q0 -133 23 -200q55 -159 243 -159q87 0 168.5 50t116.5 104v731h170v-1024h-88l-41 127q-135 -143 -336 -143q-79 0 -142.5 16t-107.5 43t-76.5 67.5t-51.5 83t-30.5 96.5t-15.5 101.5t-4 104.5zM229 1317q0 44 30.5 75t74.5 31t75 -31t31 -75 t-31 -74.5t-75 -30.5t-74.5 30.5t-30.5 74.5zM739 1317q0 44 30.5 75t74.5 31t75 -31t31 -75t-31 -74.5t-75 -30.5t-74.5 30.5t-30.5 74.5z" />
<glyph unicode="&#xfd;" horiz-adv-x="1157" d="M61 1024h185l334 -805l323 805h193l-615 -1448h-180l188 444zM381 1292l317 236l78 -117l-336 -205z" />
<glyph unicode="&#xfe;" horiz-adv-x="1251" d="M164 -418v1856h170v-471q139 71 284 71q112 0 202.5 -34.5t146.5 -89t93.5 -126t52.5 -140.5t15 -138t-15 -138t-52.5 -140.5t-93.5 -126t-146.5 -89t-202.5 -34.5q-145 0 -284 71v-471h-170zM334 211q47 -35 126.5 -61.5t139.5 -26.5q85 0 151.5 29.5t104 72.5t62 98.5 t32.5 100.5t8 86t-8 86t-32.5 100.5t-62 98.5t-104 72.5t-151.5 29.5q-60 0 -139.5 -26.5t-126.5 -61.5v-598z" />
<glyph unicode="&#xff;" horiz-adv-x="1157" d="M61 1024h185l334 -805l323 805h193l-615 -1448h-180l188 444zM219 1317q0 44 30.5 75t74.5 31t75 -31t31 -75t-31 -74.5t-75 -30.5t-74.5 30.5t-30.5 74.5zM729 1317q0 44 30.5 75t74.5 31t75 -31t31 -75t-31 -74.5t-75 -30.5t-74.5 30.5t-30.5 74.5z" />
<glyph unicode="&#x152;" horiz-adv-x="2066" d="M123 719q0 67 10 135t34.5 141.5t61.5 138.5t94 124.5t128 102.5t168.5 68t211.5 25q110 0 191 -20h922v-148h-754v-506h590v-147h-590v-486h754v-147h-928q-82 -18 -185 -18q-114 0 -211.5 25t-168.5 67.5t-128 101.5t-94 124t-61.5 138.5t-34.5 142.5t-10 138zM301 719 q0 -36 4.5 -78t19.5 -100t38 -111.5t64.5 -107.5t95 -93.5t133 -64.5t175.5 -25q109 0 185 27v1100q-86 28 -185 28q-96 0 -175.5 -24.5t-133 -63.5t-95 -93t-64.5 -106.5t-38 -110t-19.5 -99.5t-4.5 -78z" />
<glyph unicode="&#x153;" horiz-adv-x="2017" d="M123 512q0 69 15 138t52.5 141t93.5 126.5t146.5 89.5t202.5 35q290 0 424 -231q57 109 162.5 173.5t265.5 64.5q194 0 301.5 -119t107.5 -318q0 -71 -10 -125h-741q0 -65 25 -130t68.5 -116.5t109 -83.5t139.5 -32q185 0 313 113l84 -101q-87 -80 -180.5 -116.5 t-216.5 -36.5q-151 0 -256 65t-170 168q-143 -233 -426 -233q-112 0 -202.5 34.5t-146.5 89t-93.5 126t-52.5 140.5t-15 138zM293 512q0 -29 5 -63t17 -80.5t37 -88t60.5 -78t92.5 -58t128 -21.5q62 0 113.5 16.5t86 43t61 63t41.5 72t24.5 74.5t12.5 67t3 53t-3 53 t-12.5 67t-24.5 74.5t-41.5 72t-61 63t-86 43t-113.5 16.5q-71 0 -128 -21.5t-92.5 -58t-60.5 -78t-37 -88t-17 -80.5t-5 -63zM1135 608h585q3 39 1 79t-19 78.5t-44 68.5t-74.5 50t-108.5 23q-64 0 -117 -18.5t-89 -48t-64 -70.5t-43.5 -79.5t-26.5 -82.5z" />
<glyph unicode="&#x178;" horiz-adv-x="1273" d="M61 1434h197l377 -621l377 621h200l-489 -783v-651h-176v649zM276 1726q0 44 30.5 75.5t74.5 31.5t75 -31.5t31 -75.5t-31 -74t-75 -30t-74.5 30t-30.5 74zM786 1726q0 44 30.5 75.5t74.5 31.5t75 -31.5t31 -75.5t-31 -74t-75 -30t-74.5 30t-30.5 74z" />
<glyph unicode="&#x2c6;" horiz-adv-x="1060" d="M225 1292l318 236l317 -236l-59 -86l-258 158l-258 -158z" />
<glyph unicode="&#x2dc;" horiz-adv-x="1060" d="M225 1255q30 89 85 128.5t120 39.5q41 0 77.5 -20.5t70 -41t67.5 -20.5q19 0 34 4t38 22t45 52l94 -51q-75 -154 -215 -154q-46 0 -106.5 41t-106.5 41q-33 0 -59.5 -17t-53.5 -67z" />
<glyph unicode="&#x2000;" horiz-adv-x="1014" />
<glyph unicode="&#x2001;" horiz-adv-x="2028" />
<glyph unicode="&#x2002;" horiz-adv-x="1014" />
<glyph unicode="&#x2003;" horiz-adv-x="2028" />
<glyph unicode="&#x2004;" horiz-adv-x="676" />
<glyph unicode="&#x2005;" horiz-adv-x="507" />
<glyph unicode="&#x2006;" horiz-adv-x="338" />
<glyph unicode="&#x2007;" horiz-adv-x="338" />
<glyph unicode="&#x2008;" horiz-adv-x="253" />
<glyph unicode="&#x2009;" horiz-adv-x="405" />
<glyph unicode="&#x200a;" horiz-adv-x="112" />
<glyph unicode="&#x2010;" horiz-adv-x="884" d="M164 526v136h557v-136h-557z" />
<glyph unicode="&#x2011;" horiz-adv-x="884" d="M164 526v136h557v-136h-557z" />
<glyph unicode="&#x2012;" horiz-adv-x="884" d="M164 526v136h557v-136h-557z" />
<glyph unicode="&#x2013;" horiz-adv-x="1126" d="M164 598v123h799v-123h-799z" />
<glyph unicode="&#x2014;" horiz-adv-x="1376" d="M164 598v123h1048v-123h-1048z" />
<glyph unicode="&#x2018;" horiz-adv-x="499" d="M123 1038q0 93 53 219t113 209l67 -32q-37 -69 -70 -154t-40 -139q50 5 89.5 -26t39.5 -93q-2 -50 -35 -83.5t-82 -33.5q-70 0 -102.5 38.5t-32.5 94.5z" />
<glyph unicode="&#x2019;" horiz-adv-x="499" d="M125 1350q2 50 35 83t82 33q70 0 102.5 -38.5t32.5 -94.5q0 -93 -53 -219t-113 -209l-68 33q38 69 71 154t40 139q-50 -5 -89.5 26t-39.5 93z" />
<glyph unicode="&#x201a;" horiz-adv-x="581" d="M166 106q2 50 35 83.5t82 33.5q70 0 102.5 -38.5t32.5 -94.5q0 -93 -53 -219t-113 -209l-68 33q38 69 71 154t40 139q-51 -5 -90 25.5t-39 92.5z" />
<glyph unicode="&#x201c;" horiz-adv-x="851" d="M123 1038q0 93 53 219t113 209l67 -32q-37 -69 -70 -154t-40 -139q50 5 89.5 -26t39.5 -93q-2 -50 -35 -83.5t-82 -33.5q-70 0 -102.5 38.5t-32.5 94.5zM475 1038q0 93 53 219t113 209l68 -32q-38 -69 -71 -154t-40 -139q50 5 89.5 -26t39.5 -93q-2 -50 -35 -83.5 t-82 -33.5q-70 0 -102.5 38.5t-32.5 94.5z" />
<glyph unicode="&#x201d;" horiz-adv-x="851" d="M125 1350q2 50 35 83t82 33q70 0 102.5 -38.5t32.5 -94.5q0 -93 -53 -219t-113 -209l-68 33q38 69 71 154t40 139q-50 -5 -89.5 26t-39.5 93zM477 1350q2 50 35 83t82 33q70 0 102.5 -38.5t32.5 -94.5q0 -93 -53 -219t-113 -209l-67 33q37 69 70 154t40 139 q-50 -5 -89.5 26t-39.5 93z" />
<glyph unicode="&#x201e;" horiz-adv-x="882" d="M166 106q2 50 35 83.5t82 33.5q70 0 102.5 -38.5t32.5 -94.5q0 -93 -53 -219t-113 -209l-68 33q38 69 71 154t40 139q-51 -5 -90 25.5t-39 92.5zM549 106q2 50 35 83.5t82 33.5q70 0 102.5 -38.5t32.5 -94.5q0 -93 -53 -219t-113 -209l-68 33q38 69 71 154t40 139 q-51 -5 -90 25.5t-39 92.5z" />
<glyph unicode="&#x2022;" horiz-adv-x="792" d="M164 592q0 94 68 164.5t159 70.5q97 0 167.5 -70.5t70.5 -164.5t-70 -162t-168 -68q-91 0 -159 68.5t-68 161.5z" />
<glyph unicode="&#x2026;" horiz-adv-x="1320" d="M164 109q0 49 33.5 82.5t83.5 33.5t84 -33.5t34 -82.5q0 -50 -34.5 -84.5t-83.5 -34.5t-83 34.5t-34 84.5zM584 109q0 49 33 82.5t83 33.5t84.5 -33.5t34.5 -82.5t-34.5 -84t-84.5 -35q-49 0 -82.5 34.5t-33.5 84.5zM1004 109q0 49 33 82.5t83 33.5t84.5 -33.5 t34.5 -82.5t-34.5 -84t-84.5 -35q-49 0 -82.5 34.5t-33.5 84.5z" />
<glyph unicode="&#x202f;" horiz-adv-x="405" />
<glyph unicode="&#x2039;" horiz-adv-x="546" d="M61 504v20l353 375l71 -68l-270 -317l268 -317l-69 -66z" />
<glyph unicode="&#x203a;" horiz-adv-x="546" d="M61 831l72 68l352 -375v-20l-352 -373l-70 66l269 317z" />
<glyph unicode="&#x205f;" horiz-adv-x="507" />
<glyph unicode="&#x20ac;" horiz-adv-x="1120" d="M20 543l31 102h107v152h-138l31 102h121q20 109 57 202.5t97 176t153 130.5t209 48q200 0 346 -156l-94 -92q-107 107 -252 107q-63 0 -116.5 -25.5t-90 -65.5t-66 -97t-47 -111.5t-30.5 -116.5h477l-33 -102h-454l-4 -72q0 -53 4 -80h364l-33 -102h-321 q12 -63 29.5 -119t47 -112t67 -96.5t90.5 -65.5t116 -25q157 0 262 102l88 -86q-155 -155 -350 -155q-94 0 -173 31.5t-134.5 83.5t-98.5 125.5t-69 151t-41 165.5h-152z" />
<glyph unicode="&#x2122;" horiz-adv-x="1372" d="M92 1438v82h424v-82h-166v-496h-92v496h-166zM504 942l201 569h12l176 -376l176 376h10l201 -569h-98l-113 352l-172 -352h-8l-174 352l-111 -352h-100z" />
<glyph unicode="&#xe000;" horiz-adv-x="1024" d="M0 0v1024h1024v-1024h-1024z" />
</font>
</defs>
</svg>
